<?xml version="1.0" standalone="no"?>
<!DOCTYPE svg PUBLIC "-//W3C//DTD SVG 20010904//EN"
 "http://www.w3.org/TR/2001/REC-SVG-20010904/DTD/svg10.dtd">
<svg version="1.0" xmlns="http://www.w3.org/2000/svg"
 width="2388.000000pt" height="2282.000000pt" viewBox="0 0 2388.000000 2282.000000"
 preserveAspectRatio="xMidYMid meet">

<g transform="translate(0.000000,2282.000000) scale(0.100000,-0.100000)"
fill="#000000" stroke="none">
<path d="M12266 20723 c-13 -140 -117 -1606 -114 -1608 2 -2 49 -6 105 -10
l102 -7 5 33 c3 19 15 178 27 354 17 247 25 324 37 337 12 14 25 16 76 11 33
-3 67 -11 75 -18 7 -7 48 -176 91 -374 43 -199 80 -364 83 -367 7 -7 221 -23
227 -17 3 2 -37 170 -88 372 -52 202 -92 378 -90 391 2 16 17 31 48 47 84 45
138 111 164 204 23 82 41 346 27 408 -22 104 -67 170 -146 216 -77 46 -143 60
-355 75 -80 5 -173 12 -206 16 l-62 5 -6 -68z m464 -188 c80 -42 95 -89 81
-267 -13 -154 -25 -182 -93 -216 -42 -21 -54 -23 -148 -16 -109 7 -147 25
-136 62 2 9 10 107 17 217 6 110 16 211 21 224 9 24 9 24 118 18 68 -4 121
-12 140 -22z"/>
<path d="M11421 20771 l-65 -6 -157 -845 c-87 -464 -156 -846 -154 -848 2 -2
50 0 106 5 l103 8 19 125 c10 69 24 130 30 137 18 18 366 34 392 18 16 -9 28
-43 50 -134 l29 -121 70 1 c39 0 87 3 107 7 l36 7 -241 824 c-133 454 -245
825 -251 826 -5 1 -39 -1 -74 -4z m62 -535 c8 -8 49 -153 91 -323 93 -369 100
-337 -85 -346 -130 -6 -144 -4 -153 20 -4 8 14 155 39 327 35 238 50 314 62
324 21 15 28 15 46 -2z"/>
<path d="M13365 19848 c-138 -705 -159 -824 -145 -829 8 -4 116 -25 240 -49
248 -47 299 -48 388 -10 62 27 115 83 149 157 17 37 55 208 125 561 113 575
119 630 77 722 -59 127 -128 162 -444 225 -126 25 -230 45 -230 45 0 0 -72
-370 -160 -822z m455 552 c103 -19 148 -51 170 -125 10 -36 5 -72 -45 -330
-115 -597 -135 -688 -153 -718 -42 -73 -109 -91 -238 -63 -75 16 -84 21 -84
49 0 53 224 1173 238 1190 8 9 22 15 31 13 9 -3 45 -10 81 -16z"/>
<path d="M10153 20645 c-120 -33 -210 -100 -250 -186 -29 -62 -46 -161 -38
-223 17 -125 167 -977 181 -1026 46 -162 171 -254 345 -253 263 1 429 144 429
367 0 61 -82 561 -94 573 -3 3 -82 -7 -176 -22 -169 -29 -170 -29 -169 -54 0
-33 25 -170 31 -176 2 -3 31 0 63 6 47 9 60 8 72 -4 19 -19 63 -288 53 -330
-10 -47 -26 -73 -59 -96 -38 -27 -119 -45 -164 -37 -45 8 -95 49 -113 91 -7
17 -49 244 -94 504 -61 353 -80 484 -75 517 10 71 71 129 140 135 65 5 86 -1
125 -38 34 -32 43 -50 56 -108 9 -38 17 -75 19 -81 2 -8 35 -6 110 7 59 10
109 20 112 22 7 7 -26 149 -48 210 -28 75 -94 148 -166 184 -47 23 -72 28
-147 30 -58 2 -110 -3 -143 -12z"/>
<path d="M14443 19610 l-250 -800 126 -40 c445 -139 537 -167 542 -164 8 4 63
193 58 198 -2 2 -87 29 -189 61 -236 73 -250 79 -250 105 0 35 128 432 144
449 14 13 36 8 198 -42 101 -31 188 -57 193 -57 11 0 71 187 64 195 -3 2 -87
30 -188 61 -109 35 -186 64 -191 74 -5 10 14 85 56 222 84 273 78 258 111 257
16 0 118 -29 228 -63 110 -35 203 -61 206 -57 9 9 63 190 58 195 -5 4 -651
206 -660 206 -3 0 -118 -360 -256 -800z"/>
<path d="M8366 20145 c-50 -17 -92 -37 -93 -42 -4 -11 535 -1563 546 -1574 4
-4 508 168 626 214 10 4 -43 184 -56 193 -4 2 -96 -28 -205 -66 -109 -39 -201
-70 -204 -70 -23 1 -59 95 -270 696 -130 373 -241 679 -246 680 -5 1 -49 -13
-98 -31z"/>
<path d="M15707 20063 c-5 -8 -637 -1427 -664 -1491 l-13 -33 45 -19 c25 -11
65 -29 89 -39 l43 -19 198 446 c109 246 203 453 208 460 6 7 22 12 36 10 24
-3 26 -7 28 -53 2 -27 -12 -273 -30 -545 l-33 -495 75 -36 c42 -21 79 -34 82
-30 5 4 656 1468 676 1517 4 10 -163 91 -172 82 -2 -2 -100 -220 -217 -483
-213 -478 -214 -480 -243 -480 -28 0 -30 2 -33 45 -2 25 15 273 38 550 22 278
40 517 40 532 0 22 -8 30 -54 51 -71 33 -93 39 -99 30z"/>
<path d="M7498 19773 c-32 -14 -58 -30 -58 -36 0 -16 362 -1671 367 -1677 2
-2 46 17 98 43 l94 46 -30 112 c-32 124 -35 152 -16 166 41 29 335 163 348
158 9 -3 49 -51 89 -105 41 -55 77 -100 81 -100 3 0 48 20 98 44 l92 43 -541
664 c-298 365 -547 665 -553 666 -7 1 -38 -10 -69 -24z m471 -735 c127 -169
191 -263 187 -273 -3 -9 -62 -43 -131 -77 -124 -61 -126 -61 -144 -42 -12 12
-46 128 -96 321 -66 256 -76 305 -65 318 30 36 53 13 249 -247z"/>
<path d="M16757 19518 c-105 -184 -789 -1420 -786 -1422 21 -19 186 -103 190
-98 22 23 809 1453 805 1461 -6 9 -169 101 -179 101 -3 0 -16 -19 -30 -42z"/>
<path d="M6680 19334 c-36 -25 -71 -49 -78 -53 -10 -6 62 -123 271 -443 156
-239 287 -441 289 -449 8 -22 -10 -49 -33 -49 -10 0 -219 153 -463 340 -245
187 -449 340 -456 340 -6 0 -39 -19 -74 -43 l-64 -42 340 -520 c187 -286 393
-602 459 -703 l119 -182 78 51 c42 29 78 53 80 55 2 1 -119 189 -268 418 -149
228 -270 423 -268 432 5 29 35 41 60 25 17 -11 787 -578 843 -622 6 -4 42 13
82 38 l72 46 -33 51 c-174 269 -871 1334 -880 1343 -8 8 -27 0 -76 -33z"/>
<path d="M16834 18583 c-258 -377 -470 -688 -472 -692 -1 -4 32 -31 74 -61
l77 -53 19 23 c10 12 138 198 284 412 247 361 268 389 292 386 21 -2 28 -9 30
-29 2 -14 -53 -251 -123 -527 -69 -276 -125 -506 -125 -511 0 -8 76 -65 127
-94 14 -9 959 1371 947 1382 -14 12 -145 101 -148 101 -2 0 -137 -195 -300
-434 -163 -239 -303 -436 -311 -439 -8 -4 -24 2 -35 11 l-21 17 140 525 c77
289 143 537 146 552 6 23 1 30 -52 65 -32 22 -63 42 -69 46 -7 4 -199 -268
-480 -680z"/>
<path d="M5614 18530 c-136 -28 -292 -153 -360 -289 -24 -48 -29 -68 -29 -137
0 -128 17 -153 402 -598 182 -211 355 -404 383 -429 89 -80 203 -106 316 -72
115 34 260 159 316 273 28 57 33 76 33 142 0 112 -31 167 -212 375 -81 94
-237 274 -346 400 -109 127 -220 247 -245 267 -73 58 -175 85 -258 68z m128
-263 c30 -18 396 -431 629 -710 58 -69 75 -119 59 -178 -14 -51 -80 -124 -127
-140 -51 -16 -117 -6 -157 25 -38 28 -627 707 -660 759 -13 21 -20 50 -20 84
0 71 38 127 114 166 63 32 100 30 162 -6z"/>
<path d="M18297 18390 c-113 -29 -161 -72 -522 -475 -365 -406 -368 -410 -401
-480 -72 -154 -14 -328 154 -460 141 -112 293 -119 440 -22 19 12 119 117 224
232 l190 210 -67 62 c-36 34 -97 89 -134 122 l-68 60 -67 -76 -67 -76 45 -46
c25 -26 46 -52 46 -59 0 -13 -165 -202 -202 -231 -69 -55 -168 -41 -235 34
-66 73 -70 151 -10 222 18 21 168 191 335 376 205 228 316 344 342 357 102 52
225 -12 237 -124 6 -53 -12 -98 -66 -158 -22 -25 -41 -48 -41 -51 0 -3 37 -38
81 -78 l82 -74 59 65 c32 36 73 94 91 130 29 58 32 74 32 150 -1 107 -23 156
-113 252 -107 113 -249 167 -365 138z"/>
<path d="M11895 18330 c-11 -5 -93 -9 -182 -9 -98 -1 -173 -6 -190 -13 -15 -6
-91 -15 -168 -19 -218 -13 -464 -48 -569 -80 -16 -5 -41 -9 -55 -9 -25 0 -84
-14 -396 -91 -226 -56 -456 -129 -730 -229 -197 -72 -208 -77 -267 -106 -29
-14 -114 -50 -188 -80 -74 -30 -151 -66 -170 -79 -34 -23 -118 -64 -250 -120
-66 -28 -109 -53 -271 -157 -49 -32 -112 -69 -139 -83 -74 -38 -228 -137 -380
-245 -50 -36 -110 -78 -133 -94 -87 -61 -224 -165 -237 -181 -8 -9 -41 -38
-75 -63 -33 -25 -64 -52 -68 -59 -4 -7 -29 -27 -55 -44 -26 -18 -87 -72 -137
-120 -49 -48 -108 -101 -130 -117 -22 -16 -92 -84 -155 -151 -63 -67 -194
-204 -290 -305 -96 -100 -195 -211 -220 -246 -25 -35 -67 -89 -95 -120 -71
-80 -157 -195 -263 -351 -40 -57 -103 -149 -142 -204 -39 -55 -83 -125 -97
-155 -13 -30 -41 -77 -61 -105 -71 -98 -363 -662 -427 -825 -20 -52 -52 -129
-70 -170 -37 -84 -89 -222 -110 -290 -7 -25 -39 -117 -70 -205 -31 -88 -76
-241 -101 -340 -24 -99 -49 -194 -54 -211 -6 -17 -10 -39 -10 -50 0 -11 -6
-44 -14 -74 -7 -30 -18 -89 -25 -130 -12 -74 -33 -185 -51 -268 -6 -23 -10
-66 -10 -95 0 -29 -5 -68 -11 -87 -42 -141 -44 -1295 -2 -1363 4 -6 11 -52 15
-102 10 -118 24 -206 60 -382 11 -50 10 -55 -17 -93 -16 -23 -39 -43 -54 -47
-98 -24 -358 -143 -451 -207 -118 -81 -236 -181 -291 -247 l-44 -53 -6 -245
c-7 -272 -18 -362 -45 -392 -16 -18 -26 -20 -89 -14 -143 13 -778 17 -835 5
-108 -22 -186 -43 -270 -70 -229 -76 -322 -133 -472 -289 -102 -106 -119 -130
-166 -226 -51 -104 -65 -147 -92 -280 -6 -33 -16 -79 -21 -102 -13 -62 -12
-3460 2 -3537 24 -134 31 -174 45 -233 8 -34 14 -71 14 -83 0 -54 197 -446
231 -458 5 -2 23 -25 41 -50 41 -61 183 -207 228 -234 19 -12 49 -34 65 -49
61 -56 348 -179 470 -202 76 -14 449 -14 535 0 111 18 213 41 270 61 116 40
377 198 463 281 22 20 53 56 70 81 16 25 54 71 84 102 29 31 53 61 53 67 0 6
14 18 31 26 24 13 54 15 147 12 142 -6 317 -23 334 -33 13 -8 128 -21 303 -32
61 -4 116 -11 124 -16 8 -5 62 -13 120 -18 235 -18 328 -35 351 -63 17 -20 7
-63 -35 -155 -18 -41 -59 -140 -90 -220 -31 -80 -63 -160 -71 -178 -8 -19 -30
-75 -50 -125 -19 -51 -43 -112 -54 -137 -11 -25 -36 -89 -56 -144 -33 -91 -35
-100 -20 -115 21 -21 166 -28 222 -11 45 14 164 27 344 38 69 4 131 11 139 16
12 8 94 16 371 36 63 4 178 16 255 25 167 20 299 31 495 42 80 5 152 13 160
18 14 8 131 19 375 33 66 4 126 11 134 16 13 8 133 19 401 34 63 4 120 10 127
15 6 4 54 8 106 8 l94 2 89 -48 c49 -27 121 -64 160 -84 39 -20 83 -46 99 -58
15 -13 33 -23 39 -23 10 0 113 -46 356 -161 58 -27 141 -62 185 -78 44 -16 94
-34 110 -40 17 -6 71 -22 120 -37 50 -14 115 -36 145 -49 50 -20 178 -56 270
-75 19 -4 88 -21 153 -39 65 -17 132 -31 150 -31 18 0 66 -10 107 -21 41 -12
113 -25 160 -29 47 -5 128 -13 181 -18 53 -5 103 -13 110 -18 56 -34 1344 -35
1397 -1 7 5 56 13 110 18 118 11 237 26 277 34 17 3 59 12 95 20 36 8 90 19
120 24 140 26 221 45 296 67 44 13 89 24 100 24 26 0 554 178 654 220 41 17
86 35 100 39 14 5 185 88 380 185 340 170 357 177 400 172 52 -7 252 -22 455
-34 77 -4 147 -12 155 -17 8 -5 78 -13 155 -17 312 -18 391 -24 405 -33 14 -8
131 -19 375 -33 66 -4 126 -11 134 -16 7 -5 68 -13 135 -18 66 -5 168 -13 226
-18 58 -5 155 -13 216 -18 61 -5 117 -13 125 -18 13 -9 85 -14 414 -32 83 -5
163 -14 178 -20 34 -14 126 -16 160 -3 36 14 39 36 13 99 -13 31 -27 68 -31
82 -4 14 -18 50 -31 80 -13 30 -40 98 -60 150 -20 52 -46 115 -59 140 -12 25
-32 77 -45 115 -13 39 -32 88 -43 110 -29 59 -98 245 -104 282 -8 51 27 67
172 75 243 14 361 24 375 33 14 9 68 15 295 33 55 4 106 11 113 16 25 15 414
43 456 32 12 -3 30 -20 40 -38 31 -53 117 -158 178 -218 122 -120 190 -170
304 -225 114 -56 340 -135 444 -156 64 -12 410 -7 510 9 80 13 272 78 359 121
155 79 329 226 428 362 18 24 48 65 67 91 41 55 131 229 142 273 4 17 18 55
31 85 35 79 83 272 83 333 0 28 7 78 15 111 13 52 15 147 13 626 -3 422 -7
580 -16 625 -75 340 -95 403 -188 585 -60 118 -85 162 -176 306 -42 67 -48
108 -19 124 12 6 92 10 190 10 158 0 173 2 191 20 20 20 20 33 20 853 0 808
-1 833 -20 864 -18 30 -39 46 -130 101 -78 48 -413 212 -431 212 -11 0 -33 7
-49 15 -36 19 -240 72 -335 88 -64 10 -704 14 -940 5 -76 -3 -80 -2 -92 22 -9
18 -13 97 -13 298 0 250 -2 276 -19 310 -32 61 -167 185 -254 232 -21 12 -71
43 -112 71 -41 27 -92 58 -112 67 -21 9 -56 28 -78 42 -21 14 -100 46 -175 71
-165 56 -165 55 -138 177 10 48 25 121 34 162 8 41 19 91 24 111 6 20 10 68
10 107 0 39 5 83 11 98 23 63 32 266 32 724 0 451 -9 680 -28 711 -5 7 -13 54
-17 104 -13 156 -32 257 -94 515 -24 102 -44 193 -44 202 0 38 -193 644 -226
710 -13 26 -49 114 -80 195 -66 173 -306 660 -387 785 -32 47 -57 89 -57 92 0
11 -164 279 -237 388 -164 243 -228 332 -274 383 -15 17 -38 44 -51 62 -25 34
-75 96 -166 207 -31 38 -107 122 -168 185 -61 64 -118 127 -127 140 -23 35
-284 298 -326 329 -20 14 -81 69 -137 121 -115 109 -188 172 -250 217 -41 29
-72 55 -167 135 -36 31 -107 81 -297 210 -94 64 -348 227 -435 279 -49 29
-107 64 -127 78 -57 37 -99 61 -148 83 -25 11 -54 25 -65 32 -72 41 -460 227
-475 227 -6 0 -50 20 -98 44 -49 25 -115 52 -148 61 -32 10 -85 30 -116 46
-31 16 -121 51 -200 78 -79 27 -181 63 -228 80 -47 17 -92 31 -101 31 -9 0
-56 16 -103 35 -48 19 -98 35 -112 35 -13 0 -59 10 -102 21 -92 26 -140 37
-207 49 -27 5 -77 17 -110 25 -33 9 -89 20 -125 25 -36 5 -103 17 -150 26
-144 27 -200 34 -335 42 -71 4 -137 12 -145 17 -8 6 -114 13 -235 18 -121 4
-269 9 -330 12 -60 2 -119 0 -130 -5z m-871 -669 c3 -5 -29 -32 -72 -59 -169
-110 -197 -133 -323 -250 -93 -87 -216 -261 -289 -408 -41 -82 -79 -214 -87
-301 l-5 -52 -75 -37 c-223 -112 -387 -369 -414 -651 -24 -245 24 -436 162
-643 71 -108 109 -148 183 -195 l59 -37 -7 -52 c-3 -28 -6 -124 -6 -213 l0
-162 -97 -47 c-54 -25 -123 -57 -153 -71 -30 -13 -80 -36 -110 -50 -30 -14
-64 -29 -75 -33 -11 -5 -91 -42 -178 -84 -88 -42 -161 -76 -163 -76 -7 0 -237
-132 -304 -175 -36 -23 -72 -44 -80 -47 -8 -3 -69 -47 -135 -97 -195 -150
-420 -394 -507 -551 -59 -105 -147 -285 -154 -313 -3 -15 -10 -30 -15 -33 -5
-3 -9 -16 -9 -29 0 -42 -36 -110 -76 -140 -111 -85 -259 -271 -333 -420 -82
-165 -151 -413 -151 -543 0 -64 -4 -71 -93 -181 -63 -77 -241 -414 -278 -526
-7 -22 -16 -44 -20 -50 -28 -43 -117 -401 -150 -605 -16 -100 -17 -489 -1
-555 6 -27 22 -90 33 -140 12 -49 28 -102 35 -117 18 -34 4 -44 -26 -18 -13
11 -29 20 -37 20 -7 0 -21 4 -31 9 -9 5 -37 17 -62 26 -25 10 -61 25 -80 33
-45 20 -167 52 -196 52 -23 0 -50 34 -46 56 1 7 -6 15 -15 20 -14 6 -9 9 20
13 21 3 39 10 40 16 3 13 -121 37 -170 32 -26 -3 -44 0 -46 7 -2 7 -46 12
-123 14 -116 3 -120 3 -147 -22 -32 -29 -35 -46 -8 -46 11 0 23 -4 26 -10 9
-14 -10 -15 -167 -5 -106 7 -136 26 -38 23 52 -1 63 2 76 20 10 14 26 22 44
22 16 0 31 4 34 9 8 12 -18 21 -60 21 -22 0 -33 4 -29 10 4 6 15 8 26 5 10 -3
39 3 65 14 26 12 57 21 70 21 12 0 26 5 29 10 3 6 17 10 29 10 13 0 29 7 36
15 10 13 9 15 -8 15 -28 0 -37 16 -13 23 12 3 22 -1 25 -9 6 -15 61 -19 70 -5
3 4 35 17 71 27 36 10 65 22 65 26 0 5 6 8 14 8 8 0 36 11 63 24 26 14 59 27
73 31 14 3 35 14 47 24 20 17 21 23 13 85 -8 63 0 172 14 195 14 22 -16 20
-51 -4 -21 -14 -44 -25 -53 -25 -8 0 -44 -11 -80 -24 -109 -41 -252 -84 -315
-95 -33 -6 -61 -16 -63 -21 -4 -11 -334 -13 -396 -2 -44 8 -70 37 -47 52 8 4
42 11 75 15 34 4 83 13 110 21 27 8 70 14 95 14 25 1 57 7 71 15 14 8 37 14
52 15 15 0 30 5 33 10 9 14 -88 13 -120 -2 -20 -9 -28 -9 -38 1 -24 24 14 33
108 26 113 -8 97 -10 185 16 41 12 94 27 118 34 24 6 42 15 40 21 -3 9 -12 10
-68 13 -37 2 -8 16 63 31 37 7 62 19 70 31 7 11 23 19 39 19 34 0 36 -13 6
-36 -22 -16 -21 -16 30 -11 29 4 65 13 80 21 15 8 46 23 70 32 28 12 41 23 37
32 -3 7 -5 20 -5 28 0 26 -28 14 -39 -16 -7 -21 -16 -30 -32 -30 -18 0 -20 3
-11 12 14 14 16 98 3 98 -5 0 1 19 13 43 17 31 29 43 49 45 21 3 27 -1 27 -15
0 -15 2 -15 9 -3 6 8 7 18 4 23 -3 5 5 19 18 33 29 31 18 42 -18 17 -15 -10
-47 -27 -71 -38 -23 -10 -47 -24 -53 -32 -6 -7 -18 -13 -27 -13 -9 0 -34 -8
-56 -19 -23 -10 -50 -21 -61 -24 -11 -3 -56 -20 -100 -39 -44 -18 -100 -40
-125 -47 -25 -8 -63 -19 -85 -26 -22 -7 -65 -18 -95 -25 -30 -6 -71 -15 -90
-20 -170 -39 -191 -42 -271 -38 -81 4 -206 35 -261 64 -14 8 -44 14 -67 14
-32 0 -44 -5 -58 -26 -45 -64 -61 -79 -73 -67 -21 20 -33 199 -37 578 -5 356
0 456 29 685 28 225 40 306 58 390 6 30 16 80 21 110 6 30 15 71 20 90 5 19
16 67 24 105 9 39 20 86 25 105 28 106 43 157 51 178 5 13 9 32 9 42 0 11 6
34 14 52 8 18 21 56 29 83 18 59 56 172 68 200 18 42 51 132 66 175 16 49 27
75 67 163 14 32 26 62 26 66 0 5 7 22 15 38 8 15 61 125 119 243 57 118 123
249 146 290 91 162 180 311 191 320 3 3 14 21 24 40 10 19 60 95 111 168 52
73 94 136 94 141 0 5 4 11 8 13 5 2 41 46 80 98 133 176 164 215 201 255 20
22 57 65 81 95 24 30 72 84 105 120 34 36 84 90 111 120 71 79 227 233 329
325 49 44 105 96 125 115 20 19 60 55 89 80 30 25 79 67 110 93 193 167 704
522 941 654 19 11 82 47 140 80 58 32 137 74 175 93 139 66 247 116 380 175
17 8 100 41 185 76 85 34 169 67 185 74 65 28 401 136 525 169 36 10 79 22 96
27 17 5 39 9 49 9 10 0 32 4 49 9 17 6 69 17 116 26 47 9 108 21 135 26 64 13
223 37 252 38 12 1 24 -3 27 -8z m2171 -21 c142 -18 158 -21 275 -47 116 -26
423 -109 500 -135 8 -3 53 -17 100 -32 118 -38 204 -70 350 -129 69 -27 139
-55 155 -62 35 -14 88 -38 205 -92 47 -22 110 -51 140 -64 30 -12 57 -26 60
-29 3 -3 39 -23 80 -44 71 -37 149 -79 215 -116 138 -79 185 -107 290 -175
271 -173 585 -396 720 -510 28 -23 77 -64 110 -90 33 -27 74 -62 91 -79 17
-17 48 -46 70 -65 111 -95 407 -396 533 -541 41 -47 88 -101 105 -120 17 -19
53 -63 79 -97 26 -34 53 -68 60 -75 14 -14 123 -157 170 -224 15 -21 47 -66
71 -99 43 -61 250 -387 284 -447 10 -18 31 -55 47 -83 119 -212 153 -276 209
-390 82 -166 121 -251 157 -345 16 -41 34 -84 39 -95 33 -75 149 -411 175
-510 9 -33 23 -82 31 -110 25 -89 91 -348 103 -405 29 -142 41 -212 41 -243 0
-32 43 -179 59 -202 8 -11 54 -154 70 -220 6 -22 18 -96 28 -164 16 -118 16
-127 -1 -215 -11 -50 -29 -114 -41 -141 -27 -62 -34 -109 -46 -285 -18 -283
-45 -426 -78 -415 -90 28 -127 33 -147 20 -36 -23 -88 -77 -148 -153 -66 -83
-67 -84 -176 -43 -35 13 -80 20 -121 21 l-67 0 -38 -47 c-21 -27 -43 -51 -49
-55 -19 -13 -128 -113 -153 -141 -14 -15 -31 -27 -39 -27 -7 0 -13 -6 -13 -13
0 -22 -53 -54 -102 -61 -44 -7 -78 -29 -65 -43 8 -7 -28 -35 -74 -56 -27 -12
-44 -14 -67 -7 -21 5 -34 5 -38 -2 -12 -18 19 -28 80 -26 89 3 83 -19 -6 -25
-40 -3 -93 -10 -118 -16 -25 -6 -74 -16 -110 -24 -124 -27 -237 -65 -351 -118
-107 -49 -151 -73 -267 -142 -26 -15 -56 -32 -67 -37 -11 -6 -28 -15 -37 -22
-13 -10 -24 -10 -51 0 -18 7 -41 12 -50 12 -9 0 -17 5 -17 10 0 6 -7 10 -15
10 -8 0 -15 5 -15 10 0 6 -6 10 -12 10 -7 0 -35 11 -61 25 l-49 24 -23 -28
c-13 -15 -27 -39 -30 -54 -4 -15 -11 -27 -16 -27 -5 0 -9 -6 -9 -14 0 -7 -7
-19 -15 -26 -16 -13 -21 -50 -6 -50 5 0 11 -9 14 -20 7 -26 27 -26 27 0 0 11
-4 20 -10 20 -5 0 -10 9 -10 20 0 21 15 27 25 10 11 -18 41 -11 63 15 12 14
29 25 37 25 20 0 19 16 -1 24 -16 6 -48 -7 -76 -32 -21 -18 -23 -4 -5 29 6 13
18 24 26 24 8 0 16 6 19 13 2 6 -1 12 -7 12 -6 0 -11 7 -11 15 0 10 10 15 31
15 29 0 31 -2 25 -26 -5 -20 -4 -25 6 -21 8 2 22 -1 32 -9 16 -11 17 -16 6
-29 -10 -13 -9 -15 9 -15 14 0 21 -6 21 -20 0 -11 7 -20 15 -20 18 0 20 37 3
42 -6 2 -9 9 -5 15 5 7 18 5 41 -6 38 -17 41 -28 12 -45 -10 -6 -29 -20 -41
-31 -12 -11 -30 -27 -41 -36 -31 -25 -140 -150 -183 -210 -22 -31 -49 -59 -61
-62 -24 -6 -26 10 -5 37 19 25 19 36 0 36 -8 0 -15 -6 -15 -14 0 -17 -43 -46
-70 -46 -13 0 -20 7 -20 20 0 10 -7 23 -16 28 -11 6 -13 11 -5 16 6 4 11 11
11 17 0 22 -26 5 -113 -75 -26 -24 -69 -52 -95 -61 -26 -10 -83 -35 -127 -56
-95 -45 -246 -109 -257 -109 -5 0 -45 -18 -89 -40 -63 -31 -85 -38 -95 -29 -9
8 -14 8 -14 1 0 -6 -37 -32 -81 -59 -45 -26 -103 -66 -128 -89 -91 -81 -175
-144 -192 -144 -12 0 -23 20 -39 73 -12 39 -28 85 -35 101 -7 16 -11 35 -8 42
2 6 0 15 -6 19 -6 3 -11 14 -11 23 0 9 -7 30 -15 46 -22 41 -19 57 8 52 12 -3
74 -10 137 -16 112 -11 123 -10 330 16 19 2 42 7 50 10 8 4 29 10 45 14 55 15
159 57 235 95 257 128 470 372 554 635 34 106 43 149 57 285 15 153 3 224 -46
270 -50 47 -385 256 -404 252 -9 -2 -46 12 -83 30 -63 31 -116 42 -131 26 -4
-3 11 -14 32 -24 73 -32 210 -144 211 -171 0 -16 -25 -6 -107 42 -85 50 -230
107 -242 95 -3 -4 3 -14 14 -24 44 -37 119 -136 151 -199 25 -50 34 -80 34
-117 -1 -107 -42 -190 -120 -241 -68 -45 -76 -38 -142 126 -62 153 -66 162
-101 225 -26 47 -100 159 -107 163 -31 16 -35 22 -20 32 8 6 32 15 54 21 21 6
46 14 55 19 25 12 141 50 201 66 30 8 69 21 85 28 17 8 41 18 55 24 14 5 50
22 81 36 99 46 102 44 336 -121 209 -147 270 -201 369 -325 30 -37 64 -74 76
-82 11 -8 73 -66 137 -129 153 -150 223 -207 252 -207 13 0 59 18 104 39 44
22 145 70 225 109 346 166 431 211 579 306 36 22 73 46 82 51 84 48 122 74
244 165 76 57 148 111 159 121 116 97 158 129 199 152 32 19 47 34 47 48 0 18
54 89 125 165 192 204 278 426 253 649 -13 122 -61 299 -94 352 -8 12 -14 27
-14 33 0 6 -23 48 -52 93 -123 194 -244 311 -393 383 -76 36 -85 38 -180 38
-128 1 -187 -20 -690 -239 -16 -8 -61 -25 -100 -40 -64 -24 -124 -49 -262
-112 -28 -12 -59 -23 -67 -23 -8 0 -17 -4 -20 -9 -3 -5 -18 -12 -32 -15 -14
-4 -47 -16 -73 -28 -91 -41 -109 -48 -115 -48 -3 0 -28 -9 -54 -21 -66 -29
-103 -45 -132 -57 -43 -16 -252 -105 -325 -137 -27 -13 -72 -31 -100 -41 -75
-27 -78 -30 -71 -94 8 -68 10 -300 3 -307 -7 -6 -79 72 -92 100 -16 35 -59 97
-67 97 -11 0 -10 -8 3 -32 10 -18 8 -19 -12 -13 -35 11 -389 7 -429 -5 -19 -5
-58 -10 -87 -10 -28 0 -54 -4 -57 -9 -3 -4 -28 -9 -56 -10 -44 0 -50 2 -50 19
0 11 -7 20 -15 20 -8 0 -15 3 -15 6 0 6 36 69 46 83 2 2 10 -2 19 -9 17 -14
18 -10 6 23 -25 66 138 258 249 294 151 48 300 39 429 -27 70 -36 84 -40 113
-32 40 11 170 63 254 102 34 16 86 38 115 51 96 40 100 49 74 167 -9 37 -20
87 -25 112 -37 166 -168 389 -317 538 -110 111 -118 122 -153 222 -48 139
-109 269 -182 390 -76 125 -64 108 -139 200 -82 100 -185 208 -234 244 -22 17
-42 33 -45 37 -17 22 -249 186 -348 246 -127 77 -533 285 -727 372 -66 30
-142 64 -170 77 -27 12 -74 30 -104 40 l-53 17 7 92 c4 53 2 142 -5 211 l-12
119 26 20 c14 11 48 36 76 55 107 73 231 287 275 475 19 82 24 372 7 426 -6
19 -18 58 -27 88 -39 131 -118 256 -220 349 -55 51 -153 112 -179 112 -23 0
-46 40 -46 79 0 19 -4 48 -9 65 -93 305 -159 417 -361 616 -104 103 -222 199
-337 274 -40 26 -73 52 -73 58 0 11 40 9 195 -12z m-1254 -61 c64 -20 141 -20
154 2 14 22 187 8 360 -29 104 -23 352 -127 420 -177 17 -12 35 -24 42 -26 7
-2 46 -29 88 -59 114 -82 245 -213 245 -244 0 -11 -54 -3 -149 24 -46 12 -105
20 -153 20 -45 0 -78 4 -78 10 0 6 12 10 28 10 15 0 38 7 50 16 23 16 21 34
-3 34 -8 0 -28 13 -46 29 -17 16 -37 28 -43 25 -6 -2 -51 3 -101 10 -120 19
-130 21 -128 31 3 10 17 14 83 24 l45 6 -27 19 c-21 13 -37 16 -63 12 -26 -5
-35 -4 -33 5 2 8 -25 19 -77 30 -78 16 -103 16 -76 0 10 -7 8 -10 -8 -16 -29
-9 -37 0 -20 21 13 16 10 16 -34 10 -37 -6 -47 -4 -47 7 0 9 -34 27 -85 47
-99 38 -152 37 -235 -4 -27 -14 -52 -21 -55 -16 -12 20 -102 51 -150 53 -48 2
-98 -13 -167 -49 -14 -8 -44 -14 -65 -14 -21 0 -44 -5 -49 -10 -6 -6 -32 -11
-58 -12 -25 0 -49 -4 -52 -9 -3 -5 0 -9 6 -9 6 0 9 -4 5 -9 -3 -6 -28 -7 -58
-4 l-52 6 32 -33 33 -33 -42 -19 c-23 -10 -47 -17 -54 -14 -7 3 -36 1 -64 -3
-40 -6 -55 -5 -66 7 -13 13 -18 12 -38 -7 -12 -11 -33 -21 -47 -21 -30 -1
-111 -41 -117 -59 -3 -10 2 -12 22 -7 38 9 157 -28 140 -44 -5 -5 -65 -16
-134 -25 -68 -10 -142 -24 -163 -31 -44 -16 -107 -19 -107 -5 0 20 228 226
303 275 225 143 377 204 652 257 121 23 161 23 236 -2z m-409 -234 c0 -5 -5
-11 -11 -13 -6 -2 -11 4 -11 13 0 9 5 15 11 13 6 -2 11 -8 11 -13z m-472 -344
c0 -13 -22 -28 -55 -35 -53 -12 -269 -124 -320 -166 -27 -23 -58 -48 -68 -56
-22 -18 -27 -18 -27 1 0 30 139 172 210 213 57 34 260 67 260 43z m2055 -4
c85 -21 154 -65 246 -156 49 -48 89 -93 89 -99 0 -18 -23 -15 -46 6 -44 39
-183 126 -302 188 -70 36 -129 68 -131 70 -10 9 98 2 144 -9z m-2040 -236 c-6
-5 -57 -33 -115 -62 -58 -29 -129 -69 -159 -88 -29 -20 -71 -47 -91 -61 -21
-14 -54 -39 -73 -56 -71 -66 -112 -72 -68 -11 73 99 140 156 234 200 51 24
112 49 137 56 25 7 56 16 70 21 35 11 76 12 65 1z m2025 -32 c30 -11 66 -24
80 -29 14 -4 51 -20 82 -34 81 -38 246 -201 225 -223 -3 -3 -50 26 -104 64
-150 107 -231 159 -320 205 -42 21 -55 38 -30 38 7 0 37 -9 67 -21z m-1596
-310 c214 -38 368 -103 480 -203 28 -25 56 -34 56 -18 0 12 146 105 210 134
125 57 114 53 272 88 67 14 215 12 269 -4 75 -23 150 -67 205 -121 66 -64 96
-113 130 -211 42 -124 35 -280 -21 -428 -27 -71 -84 -184 -96 -192 -5 -3 -9
-13 -9 -22 0 -41 -143 -87 -191 -62 -24 13 -36 -6 -16 -28 15 -18 29 -52 22
-52 -3 0 -34 27 -71 60 -37 33 -87 71 -113 83 -192 96 -261 138 -261 160 0 9
13 8 105 -13 56 -13 144 -6 178 13 12 6 41 30 64 51 40 37 43 38 73 26 41 -17
63 -51 55 -83 -9 -35 10 -67 40 -67 30 0 101 69 121 116 21 51 16 185 -7 200
-5 3 -9 14 -9 25 0 10 -4 27 -9 37 -5 9 -15 36 -22 60 -10 35 -16 41 -31 36
-14 -4 -21 0 -25 14 -3 13 -11 18 -19 15 -8 -3 -23 5 -33 18 -19 23 -23 24
-183 24 -97 0 -175 -5 -193 -11 -16 -7 -50 -17 -75 -24 -25 -7 -63 -18 -85
-25 -142 -46 -157 -48 -194 -34 -23 9 -84 14 -171 15 -136 2 -196 9 -206 25
-3 5 -18 9 -33 9 -15 0 -31 4 -36 8 -6 5 -46 17 -90 26 -117 26 -369 13 -388
-20 -4 -8 -14 -14 -22 -14 -16 0 -85 -63 -85 -78 0 -6 -6 -15 -12 -19 -17 -10
-48 -78 -48 -102 0 -10 -7 -22 -15 -25 -13 -5 -14 -10 -4 -27 6 -12 9 -38 5
-58 -7 -42 12 -101 32 -101 8 0 16 -9 19 -20 8 -29 66 -51 113 -44 37 6 37 6
33 48 -5 48 25 106 55 106 11 0 42 -26 70 -59 39 -45 60 -60 89 -66 41 -9 155
-8 216 1 29 5 37 2 37 -9 0 -9 -10 -19 -22 -23 -12 -3 -28 -13 -36 -20 -7 -8
-20 -14 -27 -14 -16 0 -142 -65 -165 -86 -9 -7 -33 -20 -53 -29 -50 -21 -239
-20 -280 2 -31 16 -76 82 -130 193 -63 132 -71 163 -71 300 -1 131 8 171 63
276 21 40 102 130 150 168 90 70 252 101 395 75z m-914 -140 c0 -6 -22 -39
-49 -73 -26 -33 -51 -74 -55 -91 -11 -44 -24 -57 -47 -44 -31 16 -120 5 -174
-22 -103 -52 -152 -133 -162 -269 -5 -70 -3 -80 26 -139 38 -77 62 -109 79
-103 6 2 12 -1 12 -6 0 -6 11 -23 24 -39 12 -15 26 -46 29 -68 3 -22 9 -55 12
-72 5 -21 4 -33 -3 -33 -24 0 -154 175 -200 268 -47 97 -47 97 -50 216 -2 75
1 136 9 165 34 127 109 227 203 274 49 25 73 30 184 36 70 5 135 9 145 10 9 0
17 -4 17 -10z m3116 -7 c76 -15 138 -49 184 -98 37 -40 49 -62 94 -166 22 -53
31 -184 17 -249 -30 -139 -51 -187 -121 -287 -42 -60 -125 -142 -143 -142 -3
0 -5 14 -5 31 1 22 7 33 20 37 20 5 25 38 6 45 -8 2 2 20 27 49 108 123 135
181 136 288 1 76 -16 132 -62 200 -47 67 -99 92 -203 96 -83 4 -96 10 -96 52
0 23 -38 90 -71 126 -11 11 -19 24 -19 29 0 11 167 3 236 -11z m-1011 -492
c10 -33 -27 -82 -73 -95 -31 -10 -46 -9 -71 1 -27 12 -31 18 -31 54 0 32 4 40
19 40 10 0 29 -16 42 -35 13 -19 30 -35 37 -35 20 0 51 41 52 68 0 28 16 29
25 2z m-1209 -14 c3 -8 12 -12 20 -9 18 7 44 -20 44 -47 0 -15 -11 -26 -37
-37 -35 -14 -40 -14 -70 3 -30 15 -33 22 -33 61 0 43 0 43 35 43 22 0 38 -6
41 -14z m2036 -251 c36 -70 40 -83 68 -240 25 -141 26 -313 1 -463 -10 -63
-24 -119 -30 -125 -13 -13 -56 33 -95 104 -21 38 -28 69 -36 165 -5 66 -10
126 -10 134 0 8 16 -10 35 -40 19 -30 35 -61 35 -68 0 -7 7 -27 16 -45 l17
-32 9 25 c12 30 2 349 -13 435 -15 81 -28 134 -45 173 -31 72 9 52 48 -23z
m-2985 33 c-3 -18 -11 -64 -17 -103 -14 -80 -18 -392 -7 -477 7 -48 12 -58 28
-58 13 0 19 7 19 23 0 19 21 92 39 137 3 8 7 -36 9 -99 3 -134 -10 -187 -64
-250 -38 -44 -59 -52 -68 -23 -23 76 -37 272 -34 466 4 221 10 253 66 378 21
46 36 49 29 6z m1324 -122 c19 -8 53 -28 76 -45 63 -46 129 -42 184 11 31 30
89 48 151 48 126 0 257 -103 305 -240 21 -58 15 -107 -19 -178 l-31 -66 32
-66 c18 -36 39 -76 46 -90 39 -76 90 -273 83 -321 -2 -20 -9 -25 -40 -27 -22
-2 -47 3 -60 12 -20 14 -24 13 -55 -14 -30 -26 -38 -29 -81 -24 -26 3 -58 10
-72 14 -41 14 -270 32 -345 27 -38 -2 -153 -10 -255 -16 -222 -15 -272 -12
-305 19 l-24 23 -26 -32 c-15 -17 -36 -31 -47 -31 -20 0 -21 4 -15 93 7 112
47 243 113 364 45 84 46 85 27 106 -23 26 -43 91 -43 138 0 66 43 153 102 210
85 80 219 119 299 85z m1487 -553 c35 -70 46 -138 32 -206 -24 -120 -96 -278
-152 -332 l-21 -20 6 20 c3 11 17 52 30 90 13 39 29 90 36 115 15 64 41 261
41 320 0 28 2 50 5 50 2 0 13 -17 23 -37z m-2643 -105 c8 -51 16 -102 19 -113
3 -11 13 -51 22 -90 8 -38 24 -95 35 -126 24 -71 25 -89 1 -63 -32 34 -77 131
-112 239 -15 44 -19 233 -6 253 16 26 28 -5 41 -100z m882 -374 c-3 -3 -12 -4
-19 -1 -8 3 -5 6 6 6 11 1 17 -2 13 -5z m1949 -61 c9 -21 29 -66 45 -101 16
-35 29 -66 29 -70 0 -5 27 -80 60 -167 30 -79 61 -169 75 -219 13 -48 14 -60
3 -67 -7 -5 -18 -7 -24 -5 -6 3 -63 -5 -125 -16 -63 -10 -136 -23 -164 -28
-27 -4 -75 -15 -105 -24 -30 -9 -70 -19 -88 -22 -18 -4 -35 -11 -38 -15 -3 -5
-14 -9 -24 -9 -10 0 -31 -7 -47 -15 -62 -31 -120 -55 -137 -55 -14 0 -12 6 11
37 15 20 39 48 53 63 100 105 260 318 260 345 0 3 10 21 23 38 33 47 43 65 78
140 18 37 35 67 39 67 8 0 16 33 26 100 11 73 27 80 50 23z m-2988 -12 c7 -21
12 -47 12 -59 0 -17 57 -136 112 -232 64 -114 265 -385 348 -470 39 -40 33
-48 -17 -22 -21 11 -47 23 -58 25 -11 3 -47 15 -80 26 -33 12 -73 26 -90 32
-125 43 -356 89 -450 89 -24 0 -46 4 -49 9 -7 11 70 234 105 303 5 10 9 23 9
29 0 6 7 27 16 47 9 21 20 46 24 57 22 55 96 204 101 205 3 0 11 -17 17 -39z
m881 -6 l48 -35 119 0 c66 1 139 5 164 10 80 17 378 23 465 10 44 -7 135 -14
202 -17 106 -4 129 -2 179 16 31 11 61 18 66 15 12 -7 10 -58 -4 -91 -6 -15
-10 -34 -9 -42 2 -8 -5 -32 -15 -53 -17 -37 -18 -38 -36 -21 -19 17 -20 17
-34 -1 -17 -24 -64 -18 -193 24 -109 35 -248 60 -341 60 -127 0 -401 -54 -483
-96 -16 -8 -38 -14 -49 -14 -19 0 -20 -4 -15 -56 l6 -56 -25 23 c-14 13 -43
60 -64 104 -32 67 -40 96 -46 168 -5 62 -4 87 5 87 6 0 33 -16 60 -35z m2546
-119 c55 -20 109 -40 120 -45 11 -5 56 -24 100 -42 79 -34 334 -160 430 -214
343 -193 632 -470 797 -763 57 -102 116 -229 148 -318 12 -33 25 -68 30 -79 4
-11 15 -40 24 -65 37 -98 48 -114 93 -123 63 -12 165 -124 225 -248 65 -131
93 -219 72 -219 -4 0 -18 12 -31 26 -34 37 -166 110 -232 130 -83 24 -263 7
-282 -27 -5 -10 -15 -19 -21 -19 -17 0 -102 -55 -193 -125 -99 -76 -145 -101
-157 -83 -4 7 -8 22 -8 34 0 11 -6 29 -14 39 -12 17 -12 22 0 39 8 11 14 29
14 38 0 10 4 26 9 36 33 64 71 152 71 166 0 14 -4 15 -20 6 -11 -6 -20 -15
-20 -20 0 -7 -58 -97 -87 -135 -5 -6 -21 -28 -38 -50 -53 -71 -65 -82 -75 -65
-5 8 -12 11 -17 7 -4 -5 -2 -12 6 -16 10 -6 6 -15 -14 -35 -28 -29 -47 -27
-29 2 13 20 -9 62 -31 62 -20 0 -29 39 -15 69 12 26 28 63 47 111 6 14 16 39
23 55 6 17 19 50 27 75 8 25 26 68 39 97 13 28 24 59 24 67 0 35 -41 29 -58
-9 -6 -13 -55 -70 -109 -126 -54 -55 -102 -107 -106 -115 -4 -8 -15 -14 -22
-14 -11 0 -15 14 -15 54 0 30 5 58 10 61 6 3 10 16 10 27 0 19 32 139 66 248
45 142 74 383 49 416 -12 17 -14 16 -34 -16 -11 -19 -21 -40 -21 -46 0 -5 -8
-28 -19 -50 -41 -85 -84 -172 -116 -234 -18 -36 -39 -81 -46 -100 -18 -51 -51
-93 -61 -78 -16 26 -6 156 24 308 18 95 88 323 100 328 11 5 10 52 0 52 -5 0
-36 -27 -70 -60 -33 -33 -65 -60 -70 -60 -5 0 -25 -17 -43 -38 -19 -21 -60
-68 -93 -104 -77 -87 -168 -210 -202 -273 -15 -27 -46 -79 -69 -115 -23 -36
-53 -86 -66 -112 -13 -26 -33 -51 -44 -56 -12 -5 -209 -8 -479 -5 -317 2 -463
0 -472 -7 -7 -6 -18 -10 -26 -9 -47 6 -50 -16 -8 -64 16 -19 27 -37 23 -41 -3
-3 -24 -6 -45 -6 -22 0 -40 -5 -42 -12 -2 -7 -9 -38 -15 -68 -12 -51 -17 -85
-38 -245 -5 -33 -12 -65 -16 -71 -3 -6 -12 -49 -18 -95 -6 -46 -14 -106 -19
-134 -5 -27 -13 -77 -19 -110 -5 -33 -14 -80 -20 -105 -27 -116 -61 -337 -61
-399 0 -57 5 -64 102 -143 29 -24 31 -27 12 -28 -12 0 -35 -7 -50 -15 -16 -8
-41 -15 -56 -15 -15 0 -29 -4 -32 -9 -3 -5 -21 -12 -40 -15 -27 -5 -61 -32
-142 -111 -59 -58 -115 -105 -124 -105 -24 0 -29 20 -46 220 -32 347 -28 509
12 660 9 30 20 73 26 95 6 22 16 54 23 70 7 17 18 46 25 65 6 19 15 44 20 55
12 31 100 207 118 236 10 15 35 55 56 90 83 134 230 300 371 419 39 32 88 76
110 97 22 20 67 60 100 88 33 27 89 78 125 113 36 35 93 84 128 109 34 25 62
48 62 52 0 5 -17 36 -37 70 -45 74 -93 164 -90 167 7 8 466 8 655 0 194 -8
222 -7 222 6 0 8 -9 23 -19 32 -11 10 -38 62 -61 117 -23 55 -46 102 -51 105
-5 3 -9 12 -9 19 0 8 -13 43 -29 77 -63 138 -71 157 -71 164 0 3 -20 48 -45
100 -25 51 -45 97 -45 103 0 6 -4 11 -10 11 -5 0 -10 8 -10 19 0 10 -7 24 -15
31 -8 7 -15 20 -15 30 0 10 -6 23 -14 29 -15 13 -54 90 -66 132 -8 25 -7 26
24 19 17 -4 76 -24 131 -44z m-3762 -8 c-15 -29 -42 -75 -60 -103 -18 -27 -33
-58 -33 -67 0 -10 -4 -18 -10 -18 -5 0 -10 -7 -10 -16 0 -8 -11 -39 -24 -67
-13 -29 -34 -74 -46 -102 -13 -27 -36 -79 -52 -115 -75 -164 -118 -270 -118
-287 0 -13 -37 -101 -60 -145 -6 -11 -6 -19 1 -24 6 -3 143 -3 305 1 163 3
342 3 400 -1 108 -7 116 -12 94 -52 -5 -9 -17 -35 -26 -57 -10 -22 -28 -57
-41 -77 -13 -21 -23 -44 -23 -51 0 -8 49 -55 109 -106 60 -51 111 -95 113 -99
2 -5 68 -63 148 -131 80 -68 167 -146 193 -175 26 -28 96 -100 156 -161 122
-125 250 -279 309 -375 60 -96 159 -301 190 -395 6 -16 20 -57 32 -90 62 -169
86 -343 94 -687 2 -81 7 -151 10 -157 4 -5 2 -12 -4 -16 -5 -3 -10 1 -10 9 0
9 -4 16 -9 16 -5 0 -12 11 -15 25 -4 14 -11 25 -16 25 -6 0 -10 7 -10 15 0 20
-12 35 -76 101 -51 51 -53 52 -165 77 -76 17 -156 27 -241 30 -69 3 -131 8
-138 12 -6 4 21 23 62 43 63 32 75 42 85 74 8 24 9 46 3 65 -9 28 -44 217 -59
323 -11 71 -37 203 -61 300 -17 70 -32 146 -40 205 -4 33 -13 87 -18 120 -33
187 -47 228 -93 254 -34 19 -39 56 -10 66 23 7 36 36 21 45 -31 19 -367 32
-655 25 -166 -4 -316 -4 -333 0 -18 4 -37 17 -44 30 -23 43 -152 260 -161 270
-4 6 -45 60 -89 120 -97 131 -366 405 -398 405 -17 0 -11 -40 10 -68 44 -59
92 -235 114 -412 9 -69 18 -137 21 -152 3 -17 -2 -33 -11 -43 -22 -22 -34 -19
-34 9 0 14 -4 27 -9 30 -18 12 -207 390 -245 492 -30 79 -50 113 -62 101 -11
-11 -6 -73 11 -132 15 -56 53 -241 66 -325 7 -49 14 -77 45 -190 4 -14 10 -30
15 -35 12 -17 39 -98 39 -122 0 -12 5 -25 10 -28 20 -12 10 -43 -15 -49 -22
-6 -42 10 -160 127 -74 74 -137 132 -140 129 -8 -9 -6 -50 4 -56 4 -3 16 -31
25 -63 10 -32 28 -83 41 -113 31 -72 60 -154 75 -210 7 -25 16 -54 20 -65 54
-139 28 -151 -56 -25 -24 36 -72 94 -106 130 -72 74 -148 164 -148 175 0 5
-16 23 -35 42 -34 33 -45 31 -26 -5 8 -15 52 -123 87 -212 7 -19 19 -54 25
-77 12 -41 11 -44 -14 -67 -15 -14 -27 -34 -27 -46 0 -13 -7 -20 -20 -20 -24
0 -51 16 -137 82 -62 48 -114 79 -248 147 -66 34 -76 36 -166 36 -65 0 -105
-5 -125 -15 -57 -29 -156 -91 -177 -111 -31 -29 -34 -4 -7 57 12 27 27 60 33
74 46 104 165 244 232 273 92 41 91 39 187 282 154 386 367 675 653 887 235
173 560 342 880 458 62 22 96 36 155 63 19 9 43 16 53 16 15 1 14 -5 -10 -51z
m2034 -207 c10 -6 40 -13 67 -16 l49 -7 -39 -37 c-21 -20 -57 -45 -79 -55 -22
-11 -48 -23 -58 -28 -10 -5 -78 -10 -151 -10 -133 -1 -133 -1 -195 33 -53 29
-61 37 -56 57 4 17 1 22 -16 22 -12 0 -19 5 -17 13 6 15 48 22 48 8 0 -6 7
-11 16 -11 13 0 14 3 4 15 -10 12 -9 16 4 21 9 3 25 4 35 1 11 -3 35 -1 53 4
42 11 312 3 335 -10z m723 -514 c0 -24 49 -116 114 -214 36 -56 66 -108 66
-116 0 -9 -51 -57 -112 -108 -113 -93 -204 -171 -353 -303 -164 -146 -452
-455 -479 -515 -9 -22 -26 -29 -26 -10 0 5 9 27 20 47 19 37 26 52 74 168 34
82 147 290 214 394 94 145 105 162 177 265 38 55 75 108 80 117 6 9 42 62 80
118 39 55 78 115 89 133 10 18 23 35 29 39 14 8 27 1 27 -15z m-1856 -25 c3
-9 20 -37 38 -62 100 -136 208 -292 208 -299 0 -5 7 -14 15 -21 14 -12 94
-123 120 -168 5 -9 20 -31 32 -49 13 -17 23 -34 23 -37 0 -4 21 -41 48 -84 26
-42 53 -88 59 -102 6 -14 28 -59 47 -101 38 -80 43 -99 25 -99 -5 0 -7 -5 -4
-11 4 -6 13 -8 21 -5 9 4 14 -2 14 -17 0 -13 4 -27 9 -32 15 -16 51 -85 51
-98 0 -7 -15 6 -33 28 -34 42 -45 53 -173 186 -102 106 -323 314 -389 366 -27
22 -75 64 -106 94 -63 61 -172 157 -200 177 -27 19 -23 54 11 97 16 20 35 52
42 71 6 19 16 34 20 34 4 0 8 6 8 13 0 8 18 39 40 71 22 31 40 61 40 66 0 15
28 0 34 -18z m-1732 -1154 c-13 -13 -26 8 -17 30 6 16 7 16 17 -1 7 -13 7 -22
0 -29z m38 -44 c0 -8 -4 -12 -10 -9 -5 3 -10 10 -10 16 0 5 5 9 10 9 6 0 10
-7 10 -16z m8677 -39 c72 -39 163 -116 216 -183 109 -139 209 -394 193 -494
-8 -51 -44 -153 -69 -198 -68 -122 -283 -355 -442 -482 -55 -43 -116 -92 -135
-108 -19 -17 -40 -30 -46 -30 -6 0 -21 -11 -34 -25 -13 -14 -27 -25 -31 -25
-5 0 -50 -29 -100 -65 -51 -36 -105 -71 -121 -77 -15 -7 -28 -16 -28 -20 0 -5
-5 -8 -10 -8 -6 0 -29 -11 -51 -26 -22 -14 -55 -33 -72 -43 -18 -10 -54 -30
-82 -46 -149 -84 -216 -121 -392 -211 -90 -46 -173 -84 -186 -84 -14 0 -35 13
-52 33 -50 56 -180 202 -185 207 -34 32 -128 160 -120 165 18 11 48 -14 126
-107 81 -98 181 -198 197 -198 19 0 417 208 442 231 5 5 17 9 26 9 10 0 19 3
21 8 2 4 21 16 43 27 59 29 346 212 450 286 50 35 102 71 117 79 51 28 315
279 384 364 123 152 202 313 211 427 6 69 -6 109 -32 109 -8 0 -15 -4 -15 -10
0 -11 -218 -175 -378 -284 -124 -84 -227 -146 -367 -221 -49 -26 -119 -64
-155 -83 -112 -61 -296 -150 -346 -167 -27 -9 -77 -30 -110 -46 -34 -16 -71
-29 -82 -29 -12 0 -24 -4 -27 -10 -3 -5 -11 -10 -16 -10 -9 0 50 90 71 110 3
3 22 26 42 51 52 65 81 125 75 155 -4 22 5 31 77 79 44 30 95 67 113 82 17 16
51 44 74 63 100 81 254 229 375 359 144 156 194 212 194 218 0 8 83 109 96
116 22 13 16 34 -11 41 -25 6 -72 -1 -90 -14 -5 -4 -32 -15 -60 -25 -27 -10
-54 -22 -60 -25 -5 -4 -19 -10 -30 -12 -52 -14 -218 -79 -287 -112 -42 -20
-79 -36 -82 -36 -3 0 -25 -9 -49 -19 -147 -65 -278 -121 -285 -121 -7 0 -209
-85 -307 -130 -18 -8 -59 -25 -120 -50 -17 -8 -75 -32 -180 -75 -16 -7 -52
-20 -78 -30 -72 -27 -77 -40 -77 -181 0 -97 -3 -124 -15 -134 -9 -7 -19 -10
-23 -6 -4 4 -7 81 -7 170 0 138 3 166 18 189 9 15 25 27 35 27 10 0 26 6 37
13 11 7 40 19 65 27 42 13 199 77 296 121 23 10 68 28 100 40 33 12 64 25 69
29 6 4 39 17 74 29 79 27 218 85 316 131 22 10 90 39 150 64 101 41 239 100
340 146 169 76 219 91 291 86 43 -2 77 -12 111 -31z m-7176 -100 c6 -119 -1
-159 -25 -135 -5 5 -46 10 -90 9 -45 0 -75 -3 -68 -6 37 -15 -1 -23 -104 -23
-63 0 -113 4 -110 8 7 12 -16 162 -25 162 -13 0 -39 -31 -39 -46 0 -18 -14
-18 -30 1 -14 17 -41 20 -55 6 -6 -5 -20 -12 -32 -16 -19 -5 -23 -2 -23 14 0
20 -6 21 -80 21 -63 0 -80 -3 -80 -14 0 -11 9 -13 35 -9 28 4 35 2 35 -11 0
-15 -15 -21 -51 -18 -10 1 -20 -9 -25 -26 -6 -20 -10 1 -15 78 -5 70 -4 109 3
117 8 11 89 13 392 11 l381 -3 6 -120z m2996 30 c1 -49 -1 -111 -4 -137 l-5
-48 -198 0 c-182 0 -199 1 -199 18 -3 108 -14 130 -50 98 -14 -13 -22 -12 -61
5 -35 16 -57 19 -97 15 -33 -4 -53 -2 -53 4 0 5 -12 10 -27 9 l-28 -1 28 -11
c35 -14 34 -20 -6 -35 -45 -16 -49 -15 -45 10 7 48 -40 27 -52 -23 l-8 -34 -1
33 c-1 18 4 41 11 51 9 15 8 26 -6 56 -14 29 -16 43 -7 61 l11 24 397 -2 398
-3 2 -90z m903 -65 c0 -5 -2 -10 -4 -10 -3 0 -8 5 -11 10 -3 6 -1 10 4 10 6 0
11 -4 11 -10z m40 -20 c0 -5 -7 -10 -15 -10 -8 0 -15 5 -15 10 0 6 7 10 15 10
8 0 15 -4 15 -10z m0 -70 c0 -5 -5 -10 -11 -10 -5 0 -7 5 -4 10 3 6 8 10 11
10 2 0 4 -4 4 -10z m-6354 -104 c39 -7 97 -26 130 -41 60 -28 153 -94 154
-108 0 -5 11 -23 25 -41 26 -34 31 -55 17 -71 -5 -6 -14 -29 -22 -52 -11 -35
-11 -45 0 -58 11 -13 10 -18 -6 -33 -17 -15 -48 -17 -284 -17 -146 -1 -295 -5
-332 -9 -38 -5 -68 -5 -68 -1 0 5 18 25 40 45 22 20 40 42 40 48 0 13 -67 -8
-147 -44 -28 -13 -59 -24 -67 -24 -8 0 -17 -4 -21 -9 -3 -6 -27 -20 -53 -33
-63 -31 -174 -106 -190 -129 -28 -40 -28 -7 -1 48 16 32 33 69 39 83 30 76
167 258 260 347 48 46 110 82 167 97 65 18 232 19 319 2z m5193 -513 c67 -37
88 -56 146 -128 72 -91 113 -217 57 -177 -9 6 -64 35 -122 64 -115 57 -193 71
-234 43 -11 -8 -26 -15 -33 -15 -7 0 -34 -15 -60 -34 -82 -57 -109 -66 -198
-66 -50 0 -86 5 -93 12 -25 25 -12 46 41 72 74 37 130 79 223 168 44 42 91 82
105 88 36 15 116 2 168 -27z m-5055 -101 c45 -8 62 -32 22 -32 -13 0 -28 -5
-32 -11 -5 -9 1 -10 22 -5 66 16 82 17 88 7 7 -11 -19 -25 -67 -36 -15 -3 -25
-9 -23 -14 7 -11 -13 -28 -39 -33 -12 -2 -19 -10 -17 -21 2 -11 -4 -17 -16
-17 -11 0 -25 -6 -31 -14 -6 -8 -36 -29 -66 -47 -30 -19 -55 -40 -55 -46 0 -7
-5 -13 -12 -13 -6 0 -37 -22 -69 -50 -32 -27 -60 -50 -64 -50 -3 0 -23 -16
-43 -35 -20 -19 -32 -35 -26 -35 6 0 66 25 132 55 67 30 124 55 127 55 4 0 30
11 58 24 55 24 171 64 272 91 33 10 74 21 90 26 44 12 239 50 315 60 36 4 97
13 135 18 39 5 73 7 77 3 4 -4 -36 -36 -90 -71 -140 -93 -422 -376 -520 -523
-39 -59 -80 -116 -92 -128 -38 -38 -106 -154 -125 -210 -9 -30 -20 -62 -24
-70 -4 -8 -15 -42 -25 -75 -11 -33 -22 -69 -27 -80 -4 -11 -10 -36 -12 -55 -8
-55 -25 -90 -44 -90 -10 0 -49 12 -88 27 -179 67 -225 101 -228 170 -1 48 41
155 92 231 20 30 41 61 46 70 36 58 132 177 170 209 25 20 45 43 45 50 0 17
-29 17 -49 0 -9 -7 -41 -24 -71 -37 -30 -14 -83 -42 -118 -62 -34 -21 -64 -38
-67 -38 -2 0 -45 -25 -96 -55 -88 -53 -109 -62 -109 -49 0 11 34 64 42 64 4 0
12 9 18 20 8 15 8 20 -3 20 -7 0 -23 -9 -35 -20 -12 -11 -25 -20 -29 -20 -14
0 -103 -103 -103 -119 0 -9 -9 -27 -20 -41 -28 -37 -42 -15 -23 35 8 22 17 54
20 70 5 35 8 44 56 150 19 44 43 107 53 140 10 33 26 69 36 81 10 11 18 29 18
39 0 10 11 33 25 51 26 34 36 69 13 46 -13 -13 -48 -17 -48 -5 0 4 10 17 22
30 12 13 16 23 10 23 -7 0 -12 4 -12 10 0 5 13 7 30 4 19 -4 30 -2 30 5 0 6
-4 11 -10 11 -5 0 -10 5 -10 10 0 6 7 10 15 10 8 0 19 9 25 20 35 66 -165 -60
-295 -185 -35 -33 -193 -214 -208 -237 -50 -79 -107 -191 -107 -210 0 -8 -7
-23 -15 -34 -8 -10 -15 -27 -15 -36 0 -36 -20 -17 -20 19 0 88 77 286 164 422
41 63 191 226 253 273 49 37 212 136 273 166 155 74 379 116 504 94z m7035
-13 c66 -20 138 -60 279 -153 77 -51 164 -105 193 -120 l54 -27 150 71 c83 39
164 77 180 85 115 55 293 108 346 103 30 -3 26 -7 -67 -54 -54 -29 -142 -75
-194 -103 -180 -98 -335 -171 -401 -188 l-66 -17 -69 42 c-85 52 -84 51 -216
135 -149 94 -295 167 -332 167 -26 0 -102 -24 -281 -88 -30 -11 -100 -31 -181
-51 -23 -6 -52 -11 -65 -11 -36 -1 -199 -57 -220 -76 -43 -39 -65 13 -29 70
16 26 34 37 97 58 43 15 89 29 103 31 14 3 50 12 80 21 150 43 331 89 385 97
33 5 65 11 70 13 21 9 150 5 184 -5z m-5649 -169 c0 -12 -34 -30 -57 -30 -31
0 -214 -96 -274 -143 -30 -24 -76 -68 -101 -98 -54 -63 -148 -215 -148 -239 0
-9 -4 -20 -8 -26 -4 -5 -16 -36 -26 -69 -10 -33 -22 -71 -27 -85 -11 -31 -28
-141 -37 -235 l-7 -70 -16 35 c-37 79 -68 238 -69 342 0 69 8 90 75 198 39 64
39 64 24 55 -76 -44 -247 -262 -290 -368 -8 -21 -16 -26 -30 -22 -13 4 -19 2
-19 -8 0 -8 -17 -46 -39 -85 -21 -39 -47 -88 -57 -110 -15 -30 -24 -39 -42
-38 -21 1 -23 5 -19 36 9 68 28 121 72 213 112 229 305 478 455 588 95 70 225
123 390 157 61 13 250 15 250 2z m4490 -66 c0 -4 -16 -29 -35 -55 -19 -27 -35
-61 -36 -77 0 -15 -4 -36 -9 -47 -7 -15 -9 -10 -9 23 l-1 42 -42 -6 c-23 -4
-65 -15 -92 -26 -28 -10 -61 -18 -74 -18 -13 0 -33 -5 -45 -12 -27 -14 -149
-40 -274 -58 -2 0 -3 13 -3 30 0 38 23 53 120 79 102 27 221 61 245 71 11 5
54 16 95 25 41 10 84 21 95 25 24 10 65 12 65 4z m-778 -75 c-1 -19 -5 -63 -8
-99 -5 -56 -2 -73 17 -114 26 -56 176 -217 253 -273 118 -86 146 -114 140
-142 -12 -49 -30 -66 -90 -83 -93 -26 -156 -30 -195 -14 -50 22 -152 125 -204
206 -25 39 -45 75 -45 80 0 6 -4 10 -8 10 -8 0 -31 49 -51 109 -25 78 -3 213
47 281 20 26 120 82 137 77 5 -2 9 -19 7 -38z m-310 -65 c3 -3 -5 -25 -18 -50
-72 -135 16 -346 237 -573 56 -58 108 -118 115 -135 8 -17 19 -38 26 -47 9
-13 6 -23 -16 -51 -23 -31 -33 -36 -83 -41 -31 -3 -69 -3 -85 0 -15 3 -34 0
-42 -6 -27 -23 -103 35 -140 107 -9 18 -41 70 -70 116 -59 90 -83 139 -115
231 -26 74 -29 220 -5 301 17 58 71 124 102 124 9 0 28 7 42 14 28 16 44 19
52 10z m-3057 -25 c184 -13 351 -26 505 -38 107 -9 127 -9 136 4 12 16 74 20
89 6 9 -8 73 -20 230 -41 146 -20 200 -41 238 -92 85 -115 179 -327 133 -301
-25 14 -149 125 -211 188 -58 60 -62 62 -124 68 -35 4 -67 4 -72 1 -17 -10 -9
-37 26 -85 19 -27 35 -52 35 -55 0 -4 21 -38 48 -77 26 -40 52 -79 57 -88 6
-9 29 -48 51 -85 61 -101 141 -263 154 -312 16 -63 5 -95 -46 -137 -36 -30
-50 -36 -77 -31 -61 9 -73 17 -102 68 -17 29 -41 70 -53 92 -13 22 -76 110
-140 195 -65 85 -123 165 -130 178 -9 16 -22 23 -44 23 -35 0 -133 -52 -142
-76 -4 -9 33 -75 97 -172 146 -222 207 -332 207 -376 0 -44 -110 -133 -147
-119 -12 5 -15 2 -10 -10 10 -25 -7 -21 -39 11 -43 41 -73 83 -86 119 -7 18
-16 33 -20 33 -4 0 -8 5 -8 11 0 20 -65 107 -175 234 -67 77 -145 116 -145 72
0 -7 18 -48 40 -92 22 -44 40 -83 40 -88 0 -4 9 -26 20 -50 91 -199 101 -310
31 -374 -36 -33 -71 -43 -71 -20 0 9 -3 8 -9 -2 -12 -18 -78 -6 -90 17 -9 18
-46 165 -56 222 -3 19 -8 47 -12 63 -3 16 -1 27 6 27 14 0 15 47 1 55 -5 3
-10 16 -10 29 0 28 -36 63 -75 71 -16 4 -47 13 -68 21 -20 8 -54 14 -75 14
-21 0 -42 4 -48 9 -5 4 -34 16 -64 27 -30 10 -59 22 -64 26 -6 4 -28 8 -50 9
-23 0 -35 3 -28 6 26 10 -1 23 -35 17 -31 -6 -35 -4 -30 10 5 12 1 16 -18 16
-13 0 -26 4 -30 9 -8 14 -166 91 -186 91 -9 0 -22 6 -28 14 -7 8 -37 26 -67
41 l-56 27 5 47 c10 85 41 198 60 217 4 4 7 16 7 26 0 10 3 18 8 18 4 0 13 13
20 30 14 30 160 190 174 190 4 0 31 15 60 33 97 61 111 62 463 36z m-3790 -59
c-3 -5 -17 -10 -31 -10 -14 0 -22 4 -19 10 3 6 17 10 31 10 14 0 22 -4 19 -10z
m95 -20 c0 -5 -6 -10 -14 -10 -7 0 -19 -7 -26 -15 -14 -16 -60 -21 -60 -6 0 5
13 12 30 16 16 4 32 11 35 16 8 12 35 12 35 -1z m6415 -12 c-44 -145 -21 -327
63 -477 52 -94 45 -84 104 -158 138 -173 131 -162 122 -195 -14 -49 -53 -71
-124 -71 -49 1 -68 6 -108 32 -61 39 -125 126 -178 241 -9 19 -22 46 -29 60
-29 54 -48 190 -43 300 5 105 6 106 49 169 48 70 104 121 132 121 15 0 18 -5
12 -22z m-6591 2 c-7 -7 -19 -7 -35 -1 -23 9 -22 10 11 10 23 1 31 -2 24 -9z
m66 -45 c0 -9 -9 -15 -22 -15 -13 0 -34 -3 -48 -7 -25 -6 -25 -6 -6 15 22 26
76 30 76 7z m131 -5 c5 0 9 -4 9 -10 0 -16 -37 -11 -44 6 -5 12 -2 15 10 10 8
-3 20 -6 25 -6z m8119 6 c0 -11 -19 -15 -25 -6 -3 5 1 10 9 10 9 0 16 -2 16
-4z m-9273 -22 c-3 -3 -12 -4 -19 -1 -8 3 -5 6 6 6 11 1 17 -2 13 -5z m773
-50 c0 -2 -7 -4 -15 -4 -8 0 -15 4 -15 10 0 5 7 7 15 4 8 -4 15 -8 15 -10z
m-700 -10 c0 -11 -8 -14 -27 -12 -39 4 -42 28 -4 28 21 0 31 -5 31 -16z m7170
4 c0 -7 -7 -22 -15 -32 -8 -11 -15 -34 -15 -52 0 -18 -4 -36 -10 -39 -14 -9
-12 -97 3 -180 14 -71 60 -174 103 -231 13 -17 34 -49 47 -71 12 -22 43 -72
69 -112 66 -99 61 -106 -79 -114 -67 -4 -73 -3 -96 22 -59 64 -167 267 -167
315 0 15 -8 38 -17 53 -21 32 -23 164 -4 243 22 86 66 155 121 189 40 24 60
27 60 9z m-6750 -7 c0 -10 -24 -21 -46 -21 -8 0 -14 4 -14 9 0 8 10 12 53 20
4 0 7 -3 7 -8z m-285 -11 c-3 -5 -17 -10 -31 -10 -13 0 -24 5 -24 10 0 6 14
10 31 10 17 0 28 -4 24 -10z m135 0 c0 -5 -2 -10 -4 -10 -3 0 -8 5 -11 10 -3
6 -1 10 4 10 6 0 11 -4 11 -10z m510 -10 c0 -6 -6 -12 -12 -14 -73 -20 -101
-32 -105 -43 -3 -7 -18 -12 -33 -11 -24 2 -26 4 -16 20 6 10 22 21 36 24 14 3
34 9 45 14 51 22 85 26 85 10z m-940 -62 c0 -15 -4 -28 -10 -28 -5 0 -10 9
-10 20 0 13 -7 20 -20 20 -11 0 -20 -6 -20 -14 0 -8 -4 -18 -10 -21 -6 -4 -10
10 -10 35 0 31 4 41 13 37 8 -3 20 -1 28 4 19 12 39 -16 39 -53z m47 30 c-3
-8 -6 -5 -6 6 -1 11 2 17 5 13 3 -3 4 -12 1 -19z m588 3 c8 -14 -12 -23 -36
-16 -17 6 -19 9 -8 16 18 11 36 11 44 0z m-489 -10 c-5 -8 -56 -3 -56 5 0 2
14 4 31 4 16 0 28 -4 25 -9z m227 2 c-7 -2 -21 -2 -30 0 -10 3 -4 5 12 5 17 0
24 -2 18 -5z m162 -23 c-3 -5 -15 -10 -26 -10 -11 0 -17 5 -14 10 3 6 15 10
26 10 11 0 17 -4 14 -10z m8324 6 c-12 -10 -59 -15 -59 -6 0 5 14 10 32 10 17
0 29 -2 27 -4z m-79 -26 c-20 -13 -50 -13 -50 0 0 6 15 10 33 10 24 0 28 -3
17 -10z m-8672 -7 c-10 -2 -26 -2 -35 0 -10 3 -2 5 17 5 19 0 27 -2 18 -5z
m-148 -47 c0 -19 5 -38 10 -41 6 -3 9 -30 9 -58 l-2 -52 -7 40 c-4 22 -12 53
-19 68 -14 35 -14 77 -1 77 6 0 10 -15 10 -34z m69 7 c0 -16 -4 -37 -8 -48 -7
-16 -9 -14 -14 14 -10 49 -9 61 8 61 10 0 15 -9 14 -27z m13111 12 c0 -8 -4
-15 -10 -15 -5 0 -10 7 -10 15 0 8 5 15 10 15 6 0 10 -7 10 -15z m-12700 -15
c0 -5 -25 -10 -56 -10 -34 0 -53 4 -49 10 3 6 28 10 56 10 27 0 49 -4 49 -10z
m6530 -34 c0 -37 -21 -64 -61 -80 -106 -42 -292 -97 -352 -103 -33 -3 -60 -13
-74 -26 l-23 -20 -34 37 c-20 20 -33 42 -30 50 6 15 220 82 389 122 39 9 81
20 95 24 43 14 90 12 90 -4z m6129 -53 c0 -29 -2 -33 -8 -18 -7 18 -4 55 5 55
2 0 4 -17 3 -37z m58 -40 c-3 -10 -5 -2 -5 17 0 19 2 27 5 18 2 -10 2 -26 0
-35z m-11954 30 c-7 -2 -19 -2 -25 0 -7 3 -2 5 12 5 14 0 19 -2 13 -5z m11727
-9 c0 -8 -5 -12 -10 -9 -6 4 -8 11 -5 16 9 14 15 11 15 -7z m-293 -20 c-3 -3
-12 -4 -19 -1 -8 3 -5 6 6 6 11 1 17 -2 13 -5z m-12587 -13 c0 -6 -4 -13 -10
-16 -14 -9 -12 -38 4 -71 10 -19 12 -33 5 -45 -17 -33 -11 -65 17 -78 25 -11
25 -13 10 -30 -22 -24 -20 -54 4 -69 17 -10 18 -16 10 -33 -14 -24 -30 -16
-30 16 0 13 -4 27 -10 30 -5 3 -10 18 -10 33 0 15 -6 36 -14 47 -11 16 -11 31
-3 72 11 53 4 80 -13 53 -7 -11 -10 -5 -10 23 0 21 7 45 18 56 19 21 32 26 32
12z m2470 0 c0 -6 -4 -13 -10 -16 -5 -3 -10 1 -10 9 0 9 5 16 10 16 6 0 10 -4
10 -9z m-1303 -7 c-3 -3 -12 -4 -19 -1 -8 3 -5 6 6 6 11 1 17 -2 13 -5z m1273
-24 c0 -5 -5 -10 -11 -10 -5 0 -7 5 -4 10 3 6 8 10 11 10 2 0 4 -4 4 -10z
m-1227 -15 c7 -16 -8 -29 -23 -20 -10 6 -2 35 10 35 4 0 10 -7 13 -15z m-43
-26 c0 -6 -9 -13 -20 -16 -11 -3 -20 -12 -20 -19 0 -9 -12 -14 -35 -14 -24 0
-35 5 -35 15 0 8 -9 15 -19 15 -11 0 -23 5 -26 10 -3 6 3 10 14 10 11 0 23 -4
26 -10 10 -17 75 -12 75 5 0 8 -6 15 -12 15 -9 0 -9 3 1 9 17 11 51 -3 51 -20z
m-125 -69 c0 -18 -33 -26 -47 -12 -6 6 -7 15 -3 22 10 16 50 8 50 -10z m5385
-47 c-1 -24 -2 -26 -11 -10 -5 9 -7 22 -4 27 10 17 15 11 15 -17z m6607 -65
c-3 -7 -5 -2 -5 12 0 14 2 19 5 13 2 -7 2 -19 0 -25z m-12929 -3 c-11 -24 -28
-34 -28 -16 0 21 13 41 26 41 11 0 11 -5 2 -25z m6792 -5 c0 -5 -2 -10 -4 -10
-3 0 -8 5 -11 10 -3 6 -1 10 4 10 6 0 11 -4 11 -10z m-6250 -10 c0 -5 -16 -10
-36 -10 -21 0 -33 4 -29 10 3 6 19 10 36 10 16 0 29 -4 29 -10z m12370 -46 c0
-14 -4 -23 -9 -20 -5 3 -7 15 -4 26 7 28 13 25 13 -6z m-12860 -19 c0 -25 -23
-35 -35 -15 -10 16 2 40 20 40 9 0 15 -9 15 -25z m6373 -22 c-7 -2 -19 -2 -25
0 -7 3 -2 5 12 5 14 0 19 -2 13 -5z m5647 -13 c0 -5 -7 -10 -15 -10 -8 0 -15
5 -15 10 0 6 7 10 15 10 8 0 15 -4 15 -10z m-12092 -23 c2 -10 -3 -17 -12 -17
-9 0 -16 -7 -16 -15 0 -8 5 -15 10 -15 6 0 10 -16 10 -35 0 -19 -4 -35 -10
-35 -5 0 -10 16 -10 35 0 19 -4 35 -10 35 -5 0 -10 9 -10 20 0 11 5 20 10 20
6 0 10 7 10 16 0 20 24 13 28 -9z m12899 -24 c-3 -10 -5 -4 -5 12 0 17 2 24 5
18 2 -7 2 -21 0 -30z m-12571 -13 c14 0 22 -4 19 -10 -9 -15 -44 -12 -61 5 -9
8 -12 20 -8 26 5 8 10 7 16 -5 5 -9 20 -16 34 -16z m-276 1 c0 -10 7 -21 15
-25 10 -3 15 -19 15 -46 0 -41 -9 -50 -28 -27 -12 16 -22 117 -11 117 5 0 9
-9 9 -19z m100 9 c0 -13 -28 -25 -38 -16 -3 4 0 11 8 16 20 13 30 12 30 0z
m12660 0 c0 -5 -4 -10 -10 -10 -5 0 -10 5 -10 10 0 6 5 10 10 10 6 0 10 -4 10
-10z m-203 -16 c-3 -3 -12 -4 -19 -1 -8 3 -5 6 6 6 11 1 17 -2 13 -5z m-12061
-23 c-3 -5 -29 -11 -58 -15 -102 -12 -133 -18 -165 -32 -17 -8 -42 -13 -55
-13 -22 2 -22 2 -1 6 12 2 27 11 33 19 7 8 23 14 35 14 13 0 36 7 51 15 31 16
169 21 160 6z m11778 3 c22 -9 20 -24 -3 -24 -28 0 -52 11 -45 21 6 10 26 12
48 3z m-12079 -14 c-3 -5 -15 -10 -26 -10 -11 0 -38 -9 -61 -21 -32 -16 -42
-18 -49 -8 -12 19 -1 29 31 29 16 0 32 5 35 10 3 6 22 10 41 10 21 0 33 -4 29
-10z m12425 0 c0 -5 -4 -10 -9 -10 -6 0 -13 5 -16 10 -3 6 1 10 9 10 9 0 16
-4 16 -10z m186 -56 c-11 -31 -15 -35 -21 -21 -9 22 3 70 15 62 6 -3 10 0 11
7 0 7 3 8 5 2 2 -5 -2 -28 -10 -50z m-426 36 c0 -12 -37 -12 -65 0 -15 7 -10
9 23 9 23 1 42 -3 42 -9z m-12390 -79 c0 -46 -14 -61 -29 -32 -19 34 -14 71 9
71 17 0 20 -7 20 -39z m121 8 c-41 -16 -76 -27 -79 -25 -12 13 23 36 54 36 18
0 36 5 39 10 3 6 18 10 33 10 19 0 6 -9 -47 -31z m12509 27 c0 -3 -4 -8 -10
-11 -5 -3 -10 -1 -10 4 0 6 5 11 10 11 6 0 10 -2 10 -4z m-93 -22 c-3 -3 -12
-4 -19 -1 -8 3 -5 6 6 6 11 1 17 -2 13 -5z m243 -48 c0 -3 -4 -8 -10 -11 -5
-3 -10 -1 -10 4 0 6 5 11 10 11 6 0 10 -2 10 -4z m-8410 -78 c11 -12 20 -25
20 -29 0 -4 9 -9 20 -12 32 -8 23 -26 -12 -26 -63 -1 -95 -6 -109 -18 -8 -6
-60 -34 -116 -63 -57 -28 -103 -56 -103 -61 0 -5 -7 -9 -16 -9 -21 0 -123 -74
-212 -154 -74 -67 -97 -80 -85 -48 19 51 113 156 233 261 75 65 289 178 342
180 10 1 26 -9 38 -21z m-3475 -148 c158 -21 279 -57 409 -121 161 -79 399
-259 382 -288 -6 -9 -11 -9 -22 0 -16 13 -284 -4 -329 -21 -15 -6 -43 -10 -63
-10 -20 -1 -64 -8 -97 -16 -33 -9 -73 -18 -90 -21 -16 -2 -39 -8 -50 -13 -26
-12 -353 -118 -385 -125 -14 -3 -41 -7 -60 -9 -20 -2 -52 -11 -73 -19 -20 -9
-37 -12 -37 -8 0 10 48 80 80 117 41 47 257 214 277 214 10 1 60 39 52 40 -4
0 -40 7 -81 15 -91 19 -183 9 -259 -29 -29 -15 -60 -24 -70 -21 -12 4 -19 1
-19 -7 0 -7 -29 -28 -64 -46 -90 -47 -251 -151 -319 -208 -33 -27 -72 -55 -88
-63 -16 -8 -29 -23 -29 -33 0 -10 -4 -18 -9 -18 -5 0 -36 -25 -67 -55 -32 -30
-62 -55 -66 -55 -5 0 -13 -11 -18 -25 -5 -14 -14 -25 -20 -25 -13 0 -13 47 0
55 6 4 10 14 9 23 -2 20 7 44 56 143 72 147 170 286 259 366 87 80 285 203
326 203 6 0 18 4 28 9 27 15 121 39 192 49 93 13 154 14 245 2z m11240 -32
c39 -10 81 -22 95 -25 49 -12 190 -93 262 -151 178 -145 298 -309 394 -536 36
-84 41 -106 24 -106 -5 0 -10 5 -10 11 0 6 -21 38 -47 72 -27 33 -51 65 -55
71 -4 6 -12 5 -22 -3 -12 -10 -20 -9 -40 6 -14 10 -28 26 -31 36 -4 9 -11 17
-16 17 -5 0 -19 9 -31 20 -31 29 -46 25 -18 -5 51 -54 6 -32 -110 56 -68 50
-168 121 -224 157 -200 130 -280 161 -417 163 -119 1 -225 -28 -167 -46 34
-11 151 -93 285 -199 58 -45 123 -129 154 -198 7 -16 16 -28 21 -28 4 0 8 -4
8 -10 0 -21 -16 -8 -45 35 -16 25 -33 45 -37 45 -11 0 -10 -7 4 -30 7 -10 9
-23 5 -27 -5 -4 -12 -2 -16 5 -4 7 -25 16 -46 19 -36 6 -38 5 -32 -16 4 -18 2
-22 -16 -19 -14 2 -23 11 -25 26 -2 15 -10 22 -27 22 -35 0 -129 32 -141 49
-8 10 -21 12 -42 8 -18 -4 -32 -2 -32 3 0 17 33 27 66 20 19 -4 37 -4 40 1 3
5 -4 9 -16 9 -12 0 -28 7 -36 15 -10 9 -25 12 -45 8 -24 -5 -28 -3 -23 11 5
12 0 16 -19 16 -13 0 -30 6 -36 14 -7 8 -28 16 -49 19 -47 6 -121 25 -147 36
-11 5 -38 12 -60 16 -22 3 -94 15 -160 25 -66 11 -169 20 -228 20 -60 0 -107
3 -105 8 2 4 28 30 58 58 104 96 239 183 380 243 58 25 83 33 190 58 153 36
459 36 585 1z m-12655 -42 c0 -16 -14 -44 -55 -106 -16 -25 -40 -63 -52 -85
-22 -38 -31 -56 -73 -150 -34 -77 -80 -338 -80 -456 0 -80 3 -79 -152 -79
-138 0 -140 1 -132 118 3 48 10 103 15 122 5 19 9 49 9 67 0 17 5 35 10 38 6
3 10 13 10 21 0 15 33 97 50 124 6 8 22 37 36 65 32 60 203 233 259 262 22 11
62 32 89 47 56 30 66 32 66 12z m13805 -10 c11 -7 52 -30 90 -50 122 -63 288
-232 365 -371 49 -88 90 -260 90 -376 l0 -70 -150 3 -151 3 -4 100 c-9 189
-42 341 -100 461 -45 93 -120 213 -142 227 -7 4 -13 14 -13 22 0 8 -8 19 -19
24 -10 6 -21 17 -25 26 -7 20 32 21 59 1z m-8615 -17 c0 -10 -59 -39 -80 -39
-23 0 -8 18 28 33 46 19 52 20 52 6z m-135 -59 c-3 -5 -10 -10 -16 -10 -5 0
-9 5 -9 10 0 6 7 10 16 10 8 0 12 -4 9 -10z m5748 -196 c-4 -10 -9 -12 -15 -6
-12 12 -1 35 12 27 5 -3 6 -13 3 -21z m33 -33 c5 -5 18 -11 29 -14 11 -3 5 -5
-14 -4 -19 1 -36 8 -39 15 -4 14 10 16 24 3z m-71 -11 c3 -5 -3 -10 -15 -10
-12 0 -18 5 -15 10 3 6 10 10 15 10 5 0 12 -4 15 -10z m-6855 -55 c0 -4 -7
-19 -15 -35 -8 -16 -22 -50 -31 -77 -38 -117 -77 -212 -89 -216 -6 -3 -32 12
-56 33 -24 22 -47 39 -51 40 -3 0 -40 20 -82 44 -41 25 -96 55 -122 66 -30 14
-43 25 -37 31 6 6 55 21 109 34 55 13 124 31 154 40 30 9 72 20 93 25 21 4 41
10 44 14 8 7 83 8 83 1z m8306 -116 c3 -6 2 -15 -2 -19 -12 -12 -38 5 -30 19
9 14 23 14 32 0z m-7846 -29 c0 -5 -5 -10 -11 -10 -5 0 -7 5 -4 10 3 6 8 10
11 10 2 0 4 -4 4 -10z m-3230 -94 c0 -3 -4 -8 -10 -11 -5 -3 -10 -1 -10 4 0 6
5 11 10 11 6 0 10 -2 10 -4z m11450 -32 c0 -8 -5 -12 -10 -9 -6 4 -8 11 -5 16
9 14 15 11 15 -7z m-9625 -50 c27 -8 64 -20 80 -26 17 -6 42 -13 58 -15 23 -4
27 -10 27 -37 0 -29 -4 -32 -47 -44 -75 -21 -181 -30 -423 -38 -232 -7 -555 9
-544 28 7 11 169 92 215 107 47 15 137 32 224 42 109 12 351 2 410 -17z m8250
6 c66 -18 151 -44 165 -51 8 -3 36 -16 63 -28 26 -11 47 -25 47 -31 0 -5 9
-10 19 -10 11 0 23 -4 26 -10 4 -6 -5 -10 -19 -10 -14 0 -26 5 -26 10 0 6 -11
10 -25 10 -14 0 -24 -5 -23 -12 6 -28 -195 -35 -522 -19 -174 8 -202 12 -265
36 -45 18 -87 27 -117 26 -28 -1 -48 2 -48 8 0 6 6 11 14 11 7 0 33 11 57 23
41 22 178 52 279 61 68 6 341 -4 375 -14z m-6994 -127 c-9 -16 -10 -15 -11 8
0 14 3 29 8 33 12 12 14 -22 3 -41z m9239 12 c0 -8 -2 -15 -4 -15 -2 0 -6 7
-10 15 -3 8 -1 15 4 15 6 0 10 -7 10 -15z m-14866 -490 c135 -36 239 -124 305
-258 60 -122 72 -215 69 -507 l-3 -235 -35 1 c-19 1 -55 7 -80 13 -25 6 -126
15 -225 19 l-180 7 -5 180 -5 180 -188 3 -187 2 -13 -27 c-18 -41 -24 -2933
-6 -3013 24 -108 71 -144 185 -143 93 2 155 30 181 81 17 35 18 79 18 727 0
380 -3 698 -7 708 -10 23 -21 17 -95 -53 -32 -30 -69 -64 -82 -75 l-24 -20 6
35 c3 19 13 67 23 105 15 56 18 109 18 265 -1 180 -3 199 -23 241 -12 26 -33
57 -47 69 -13 13 -24 27 -24 32 0 4 218 8 485 8 267 0 485 -4 485 -8 0 -5 -14
-21 -31 -38 -17 -16 -55 -66 -85 -110 l-54 -81 0 -964 c0 -1012 -2 -1070 -46
-1197 -30 -90 -107 -202 -167 -243 -17 -13 -34 -26 -37 -29 -10 -11 -115 -53
-170 -67 -83 -21 -282 -32 -401 -22 -240 19 -384 90 -498 244 -71 96 -107 197
-142 395 -15 85 -13 3082 2 3245 12 129 25 180 71 266 86 163 236 257 443 280
121 13 502 3 569 -16z m17246 15 c176 -13 267 -43 346 -112 77 -67 136 -196
154 -332 5 -39 10 -214 10 -389 0 -260 -2 -319 -14 -323 -7 -3 -43 15 -79 40
-35 25 -68 46 -71 46 -4 0 -24 11 -46 25 -22 14 -48 25 -58 25 -10 0 -22 4
-27 8 -13 11 -130 41 -175 44 l-35 3 -8 165 c-6 135 -11 167 -24 178 -12 8
-64 12 -173 12 -110 0 -161 -4 -172 -12 -45 -37 -41 -225 8 -376 33 -100 134
-310 218 -451 36 -62 66 -114 66 -117 0 -2 19 -34 42 -71 62 -101 228 -384
228 -389 0 -2 15 -27 33 -56 43 -67 143 -268 187 -373 18 -44 47 -132 64 -195
l31 -115 0 -500 c0 -512 -2 -545 -42 -680 -39 -133 -95 -226 -189 -316 -127
-120 -235 -156 -489 -165 -280 -10 -425 28 -545 142 -81 77 -102 116 -151 279
-15 51 -24 508 -14 753 8 201 11 209 62 147 85 -102 249 -193 439 -241 8 -1
13 -58 16 -171 6 -206 15 -234 84 -265 89 -39 225 -9 270 59 19 29 23 53 29
200 9 207 1 649 -12 683 -6 14 -18 52 -28 85 -9 33 -21 68 -26 77 -5 10 -9 22
-9 27 0 23 -153 339 -223 461 -64 109 -77 132 -117 205 -19 33 -41 71 -50 85
-33 48 -225 419 -259 500 -13 30 -29 69 -36 85 -48 111 -91 270 -125 459 -14
79 -13 364 1 423 53 220 171 358 352 410 104 30 345 40 557 23z m-8414 -115
c3 -7 -5 -29 -18 -47 -14 -18 -30 -52 -36 -74 -16 -55 -17 -2388 -1 -2483 5
-35 16 -73 24 -85 8 -11 15 -25 15 -32 0 -7 -72 -10 -246 -10 l-245 1 6 25 c3
14 10 45 15 70 12 62 18 1221 6 1217 -12 -4 -20 -20 -41 -87 -9 -30 -20 -64
-25 -75 -32 -82 -59 -153 -63 -170 -5 -20 -36 -107 -121 -335 -26 -69 -49
-131 -52 -139 -6 -19 -6 -20 -53 99 -23 58 -46 114 -51 125 -7 18 -65 173 -92
250 -13 36 -37 94 -47 115 -6 12 -50 149 -67 208 -16 56 -20 -69 -17 -600 2
-433 7 -624 15 -651 9 -31 9 -40 -1 -47 -7 -4 -121 -8 -254 -9 l-240 -2 17 26
c9 14 23 35 31 48 13 21 15 183 18 1293 2 1252 2 1269 -18 1299 -11 17 -25 36
-32 43 -7 7 -13 18 -13 23 0 10 297 11 375 1 l50 -7 39 -120 c106 -329 220
-673 261 -790 26 -71 51 -145 56 -163 12 -38 25 -34 34 11 4 17 26 91 49 162
24 72 60 186 80 255 47 153 57 187 100 320 18 58 46 146 61 195 15 50 32 100
37 111 13 29 68 36 259 33 83 -1 153 1 156 5 11 10 23 7 29 -9z m1114 1 c150
-36 234 -114 298 -276 17 -44 21 -210 26 -1165 2 -426 -1 -782 -6 -840 -15
-158 -55 -259 -135 -339 -84 -85 -169 -118 -344 -136 -144 -14 -291 3 -400 46
-94 37 -183 120 -228 213 -63 130 -62 117 -58 1187 4 1056 2 1020 63 1124 58
100 133 155 249 185 70 18 461 19 535 1z m-8091 -12 c122 -20 243 -131 287
-261 35 -103 44 -210 44 -533 -1 -529 -30 -662 -186 -846 -56 -66 -65 -96 -45
-146 9 -21 53 -161 97 -308 9 -30 27 -87 40 -127 13 -39 24 -80 24 -92 0 -11
5 -23 10 -26 6 -3 10 -16 10 -28 0 -12 6 -39 14 -62 8 -22 19 -60 26 -85 7
-25 16 -56 20 -70 4 -14 16 -54 25 -90 22 -82 64 -210 75 -231 5 -9 12 -32 15
-52 l7 -35 -74 -5 c-40 -3 -147 -12 -237 -21 -90 -8 -168 -13 -172 -10 -5 3
-9 12 -9 19 0 8 -6 29 -14 47 -14 33 -20 54 -51 178 -9 36 -20 74 -25 85 -5
11 -11 31 -13 45 -3 14 -17 68 -32 120 -29 104 -52 193 -65 255 -12 59 -70
286 -80 315 -4 14 -11 37 -14 53 -9 38 -32 34 -89 -16 l-48 -42 -2 -525 c-2
-491 -1 -527 16 -558 20 -37 17 -46 -16 -49 -155 -18 -299 -38 -446 -63 -66
-11 -82 -8 -66 14 6 7 19 26 30 42 20 28 20 47 23 1474 2 795 1 1468 -3 1496
-5 46 -17 72 -61 131 l-16 22 484 -5 c265 -2 498 -6 517 -10z m1720 1 c6 -6 7
-25 1 -50 -5 -22 -10 -136 -10 -252 0 -117 -4 -213 -8 -213 -4 0 -14 6 -20 13
-10 9 -74 12 -250 12 l-237 0 -3 -135 c-2 -74 0 -208 3 -297 l7 -163 178 0
178 0 6 -182 c3 -101 9 -205 12 -232 l6 -49 -33 8 c-53 13 -332 15 -346 3 -10
-8 -13 -109 -13 -444 0 -340 3 -434 13 -435 39 -2 148 3 262 12 107 9 138 16
178 37 27 14 53 34 58 44 24 45 29 9 29 -221 0 -187 3 -248 15 -281 8 -24 13
-46 9 -49 -3 -3 -20 -7 -37 -7 -18 -1 -113 -9 -212 -18 -99 -10 -229 -21 -290
-26 -151 -12 -450 -39 -506 -46 -54 -6 -68 5 -38 32 45 41 46 49 53 499 4 237
9 529 11 650 3 121 1 279 -4 352 -7 121 -10 135 -35 167 -14 19 -26 40 -26 46
0 7 16 30 35 53 l35 41 0 491 c0 525 -4 579 -50 608 -30 18 -24 35 13 39 84 8
1008 1 1016 -7z m1283 1 c4 -6 2 -18 -3 -27 -5 -10 -9 -123 -9 -252 0 -128 -3
-236 -6 -240 -4 -3 -18 3 -33 14 -25 18 -41 19 -241 17 l-215 -3 -3 -274 c-2
-151 -1 -285 3 -298 5 -23 6 -23 184 -23 l179 0 1 -147 c1 -82 6 -177 10 -213
5 -36 7 -66 6 -68 -2 -2 -77 -3 -167 -3 -89 0 -175 -3 -190 -5 l-28 -6 0 -388
c0 -298 3 -390 13 -397 12 -9 230 -2 347 12 48 6 62 13 105 53 l50 46 3 -74
c4 -127 23 -443 28 -486 l6 -41 -179 -6 c-227 -8 -700 -38 -835 -53 -67 -7
-71 0 -33 50 24 32 25 38 35 302 5 148 10 474 10 725 l0 456 -40 46 c-22 25
-40 51 -40 58 0 7 18 32 40 54 l40 41 2 499 c3 538 3 540 -50 597 -13 14 -22
30 -19 35 7 11 1020 10 1029 -1z m558 4 l95 0 28 -88 c77 -243 113 -356 143
-443 19 -53 34 -100 34 -105 0 -5 12 -40 26 -79 14 -38 42 -113 61 -165 19
-52 39 -104 43 -115 5 -11 20 -54 35 -95 14 -41 30 -82 35 -91 5 -9 12 -33 15
-53 20 -103 25 9 25 534 0 498 -2 575 -16 617 -9 26 -23 53 -32 59 -37 27 1
32 253 32 140 1 255 -2 255 -5 0 -3 -11 -29 -24 -57 -13 -28 -26 -67 -30 -86
-10 -56 -16 -1613 -8 -2090 7 -405 9 -437 27 -467 10 -18 17 -35 14 -37 -3 -3
-86 -8 -185 -12 -203 -8 -189 -13 -217 76 -9 30 -39 123 -66 205 -27 83 -58
184 -70 225 -50 171 -83 274 -142 440 -33 96 -72 213 -84 260 -51 189 -50 202
-53 -469 -2 -607 1 -691 30 -728 27 -34 4 -39 -208 -41 -115 -2 -224 -5 -241
-8 -44 -8 -51 12 -21 62 l23 39 7 645 c11 1093 9 1850 -4 1914 -8 40 -20 66
-40 86 -49 49 -41 54 85 47 61 -4 155 -7 207 -7z m5559 -5 c4 -5 24 -64 45
-130 21 -66 42 -129 47 -140 4 -11 15 -45 24 -75 9 -30 20 -64 25 -75 5 -11
11 -29 13 -40 3 -11 37 -114 76 -230 39 -115 76 -226 82 -245 6 -19 30 -87 55
-150 24 -63 47 -130 50 -148 4 -18 12 -31 18 -29 8 3 11 173 11 611 0 567 -1
608 -17 620 -37 27 -20 36 70 36 48 0 150 3 228 7 161 7 163 6 137 -68 -13
-38 -15 -210 -16 -1344 l-2 -1300 27 -47 c14 -26 23 -50 19 -53 -5 -2 -57 0
-117 5 -60 6 -143 13 -184 16 -69 5 -76 7 -88 32 -6 14 -12 30 -12 36 0 12
-44 158 -75 246 -23 66 -64 195 -131 415 -20 66 -56 179 -81 250 -84 247 -103
305 -104 323 0 9 -9 35 -19 57 -19 39 -19 31 -17 -610 2 -597 3 -653 20 -684
9 -19 17 -36 17 -38 0 -9 -489 -2 -495 7 -3 6 4 25 17 43 l23 32 5 1010 c3
556 2 1136 -1 1290 -5 253 -7 283 -25 312 -10 18 -22 33 -26 33 -4 0 -12 9
-18 20 -10 19 -7 19 200 18 133 -1 214 -6 219 -13z m1731 2 c0 -6 -6 -18 -14
-26 -35 -40 -39 -90 -43 -568 -3 -311 -1 -473 5 -473 6 0 18 26 27 58 10 31
28 89 40 127 40 125 67 218 86 290 15 59 57 203 125 430 8 28 18 74 23 103 4
29 10 54 12 57 3 2 107 7 232 11 184 6 227 5 227 -6 0 -7 -11 -36 -24 -64 -22
-46 -102 -285 -173 -516 -14 -47 -36 -114 -49 -150 -13 -36 -24 -73 -24 -82 0
-9 -4 -27 -9 -40 -5 -13 -17 -50 -27 -83 -18 -65 -48 -166 -85 -285 -26 -85
-28 -121 -11 -176 39 -126 68 -228 107 -369 15 -55 50 -172 77 -260 28 -88 54
-173 59 -190 4 -16 17 -59 28 -95 11 -36 29 -99 41 -140 22 -73 37 -123 86
-285 14 -44 34 -101 46 -128 25 -55 17 -75 -23 -58 -21 9 -351 41 -422 41 -15
0 -29 6 -31 13 -8 29 -61 200 -91 292 -33 102 -42 136 -70 260 -19 83 -26 112
-59 225 -14 47 -32 114 -41 150 -16 63 -20 77 -47 166 -26 84 -33 42 -34 -216
-2 -418 11 -767 31 -818 10 -24 15 -46 11 -49 -5 -6 -536 27 -545 33 -2 2 13
26 33 54 l36 50 0 1293 0 1293 -25 51 c-14 28 -32 54 -40 57 -8 3 -15 11 -15
18 0 10 61 13 285 14 190 1 285 -2 285 -9z m1940 4 c0 -3 1 -122 3 -264 1
-142 1 -260 -1 -261 -1 -2 -20 5 -41 16 -34 17 -59 18 -247 16 l-209 -3 -3
-298 c-2 -233 0 -298 10 -302 7 -2 90 -6 183 -7 l170 -3 6 -200 c3 -110 10
-215 14 -234 l8 -34 -34 7 c-19 3 -107 9 -197 12 l-162 7 2 -459 3 -459 115
-12 c63 -6 161 -12 216 -12 98 -1 102 0 139 29 21 17 41 30 46 30 4 0 9 -116
11 -257 3 -219 7 -264 21 -296 18 -40 15 -62 -9 -53 -14 5 -210 29 -374 46
-52 5 -142 14 -200 21 -117 13 -252 25 -380 35 -115 8 -115 8 -90 42 12 16 25
55 30 93 5 35 9 373 10 751 0 746 4 700 -58 771 -38 44 -34 59 22 98 l36 24 2
370 c5 645 4 679 -12 711 -8 16 -23 36 -34 45 -10 9 -16 20 -13 25 6 10 1017
15 1017 5z m665 -9 c4 -9 15 -48 25 -87 59 -224 84 -317 115 -425 9 -30 20
-75 24 -100 5 -25 22 -97 39 -160 16 -63 33 -136 36 -162 11 -77 45 -56 46 28
0 17 9 73 21 125 11 52 24 114 28 139 10 51 46 237 63 320 17 86 67 282 78
310 l10 25 235 0 c129 0 235 -2 235 -4 0 -2 -12 -28 -26 -56 -14 -29 -32 -77
-40 -106 -9 -30 -19 -67 -24 -84 -17 -58 -61 -231 -69 -270 -5 -22 -18 -76
-29 -120 -11 -44 -32 -129 -47 -190 -25 -104 -57 -235 -92 -370 -9 -33 -22
-87 -29 -120 -7 -33 -17 -78 -23 -100 -6 -22 -15 -60 -21 -85 -5 -25 -18 -87
-30 -139 -19 -90 -20 -126 -20 -780 l1 -686 24 -50 c28 -57 21 -72 -27 -56
-34 10 -162 32 -303 50 -197 26 -178 20 -169 50 4 14 9 325 11 691 l4 666 -30
114 c-16 63 -37 142 -46 175 -32 121 -68 251 -76 280 -4 17 -12 46 -17 65 -6
19 -22 78 -37 130 -27 98 -52 192 -103 390 -17 63 -42 160 -57 215 -15 55 -35
133 -46 174 -24 90 -49 140 -88 177 -16 15 -28 30 -26 33 2 3 109 7 238 8 215
2 236 1 242 -15z m-6976 -3208 c57 -18 140 -83 162 -127 20 -40 42 -145 37
-177 -4 -30 -30 -37 -145 -39 l-83 -1 0 35 c0 19 -9 52 -20 73 -18 34 -26 40
-64 45 -69 10 -99 -3 -115 -49 -23 -67 -9 -110 58 -174 32 -30 98 -79 147
-109 103 -64 189 -140 211 -191 22 -48 24 -237 3 -304 -21 -68 -76 -127 -152
-162 -57 -26 -72 -29 -163 -27 -122 1 -197 26 -262 86 -48 44 -83 112 -83 161
0 17 -5 48 -11 69 -17 62 -5 68 120 65 l105 -3 22 -63 c30 -87 45 -102 109
-102 61 0 92 25 102 83 10 63 -5 106 -50 148 -23 21 -46 39 -50 39 -5 0 -27
13 -50 28 -23 16 -71 48 -107 72 -146 97 -210 195 -210 323 0 150 66 250 197
298 64 23 226 25 292 3z m1126 3 c118 -23 190 -76 236 -174 26 -56 29 -73 27
-141 l-3 -77 -108 -5 c-60 -3 -111 -1 -114 3 -3 5 -6 32 -6 62 -2 70 -29 107
-86 118 -57 11 -113 -15 -122 -58 -10 -44 -9 -592 0 -648 5 -28 16 -53 27 -62
24 -18 134 -20 156 -2 10 7 18 36 22 77 3 35 10 68 14 72 5 5 56 7 113 6 l104
-3 3 -70 c6 -126 -55 -236 -160 -291 -44 -23 -242 -26 -308 -5 -63 21 -114 54
-141 93 -13 18 -26 35 -30 38 -4 3 -19 40 -34 82 l-27 77 5 323 c6 397 10 420
97 508 75 76 194 103 335 77z m-2318 -30 c74 -26 147 -91 176 -156 27 -61 34
-211 27 -536 -6 -237 -9 -275 -25 -310 -35 -74 -74 -113 -142 -147 l-66 -32
-226 -1 -226 0 3 580 c1 319 2 587 2 596 0 13 14 16 77 17 42 1 78 4 81 7 3 3
62 5 131 5 104 0 137 -4 188 -23z m-976 -424 c0 -230 3 -500 5 -601 4 -165 2
-183 -13 -189 -9 -4 -57 -7 -107 -7 l-90 -1 -31 90 c-38 106 -38 108 -55 160
-7 22 -19 56 -27 75 -8 19 -19 44 -23 55 -4 11 -13 34 -20 50 -12 29 -20 55
-41 140 -10 41 -25 65 -40 65 -5 0 -9 -143 -9 -319 0 -243 -3 -321 -12 -329
-7 -6 -57 -11 -111 -11 l-97 -1 2 606 3 607 106 4 105 5 26 -59 c14 -32 49
-128 77 -213 97 -299 112 -336 132 -324 5 3 9 142 9 310 l0 304 105 0 105 0 1
-417z m4546 393 c3 -2 21 -82 48 -216 14 -69 29 -141 34 -160 12 -47 32 -135
42 -190 4 -25 12 -65 18 -90 100 -471 115 -549 108 -557 -10 -10 -220 -4 -231
7 -13 13 -35 112 -35 166 -1 24 -8 51 -18 63 -17 20 -26 22 -118 19 l-100 -3
-9 -50 c-4 -27 -14 -79 -20 -115 l-13 -65 -44 -3 c-24 -2 -77 -1 -117 3 l-74
7 5 36 c2 21 12 69 21 107 9 39 21 90 26 115 9 44 29 136 85 385 14 66 30 140
35 165 4 25 18 86 29 135 21 89 34 149 46 212 6 31 8 32 68 36 52 3 207 -2
214 -7z m1168 -26 c120 -15 185 -58 237 -155 38 -70 42 -389 6 -480 -16 -44
-66 -93 -118 -118 -36 -17 -69 -22 -165 -25 -66 -2 -126 -9 -132 -14 -10 -8
-13 -64 -13 -219 0 -114 -3 -210 -7 -212 -5 -3 -57 -2 -118 2 l-110 6 4 610
c2 336 5 612 6 615 5 8 324 0 410 -10z m-7138 -18 c6 -4 19 -41 28 -82 9 -41
20 -91 25 -110 4 -19 13 -55 18 -80 6 -25 18 -76 27 -115 9 -38 20 -86 24
-105 5 -19 21 -87 36 -150 15 -63 31 -135 36 -160 4 -25 15 -74 24 -110 30
-116 56 -272 46 -282 -8 -9 -226 -12 -240 -3 -7 3 -11 12 -10 18 6 30 -15 188
-25 203 -10 13 -25 15 -104 9 -50 -4 -98 -13 -106 -19 -10 -7 -21 -53 -31
-126 -9 -63 -20 -118 -23 -122 -4 -3 -55 -9 -114 -13 -126 -9 -125 -10 -107
86 6 35 15 84 19 109 4 25 16 86 25 135 9 50 20 113 25 140 5 28 14 73 20 100
5 28 17 84 24 125 8 41 26 129 40 195 15 66 31 143 36 170 15 79 37 165 45
173 3 4 50 10 103 13 53 3 108 6 122 7 14 1 30 -2 37 -6z m8299 -62 c33 -6 83
-10 111 -10 28 0 55 -5 61 -12 5 -7 9 -55 8 -106 l-1 -93 -165 -2 -165 -2 -3
-128 c-3 -155 1 -167 66 -168 26 0 81 -6 122 -12 l75 -12 3 -95 3 -95 -122 4
c-79 2 -125 -1 -132 -8 -13 -13 -11 -234 3 -261 8 -15 30 -18 152 -25 200 -10
188 -2 188 -131 l0 -106 -57 5 c-32 3 -144 10 -249 16 -104 6 -210 15 -235 19
l-44 8 -3 604 c-1 333 0 610 2 615 5 13 292 9 382 -5z m-9534 -492 c1 -271 6
-498 10 -503 4 -7 35 -8 95 -2 48 5 113 10 143 11 l54 1 -1 -109 c-1 -60 -6
-112 -10 -116 -12 -11 -230 -29 -383 -32 l-135 -3 -3 604 c-1 428 1 608 9 617
7 9 43 14 107 17 54 1 100 4 104 5 3 1 8 -220 10 -490z m4958 -1015 c94 -20
202 -80 263 -148 27 -29 66 -116 68 -150 4 -55 -1 -115 -10 -115 -5 0 -31 22
-57 49 -60 59 -124 96 -184 104 -72 10 -83 -5 -36 -50 56 -54 76 -92 76 -140
0 -24 -2 -43 -5 -43 -3 0 -22 8 -43 19 -20 10 -63 22 -94 25 l-58 7 7 -32 c3
-18 17 -49 31 -68 21 -31 23 -44 19 -94 -3 -36 -12 -66 -23 -78 -17 -19 -18
-18 -46 13 -15 17 -28 35 -28 39 0 4 -13 12 -29 17 -33 12 -73 -8 -108 -52
-64 -81 -101 47 -46 160 14 30 30 54 35 54 5 0 8 10 6 23 -2 16 -11 23 -32 25
-32 4 -86 -15 -102 -36 -6 -8 -19 -13 -30 -10 -15 2 -20 13 -22 54 -3 48 0 54
44 102 25 29 57 55 70 58 25 6 31 18 15 28 -5 3 -33 1 -62 -5 -30 -6 -63 -12
-75 -14 -31 -4 -99 -50 -143 -95 -44 -46 -56 -49 -65 -17 -20 75 13 184 74
245 45 45 166 108 243 128 58 14 272 12 347 -3z"/>
<path d="M7150 15002 c0 -16 132 -186 174 -225 55 -52 184 -157 192 -157 4 0
21 -10 38 -23 17 -12 54 -33 81 -47 28 -13 75 -39 107 -58 104 -63 95 -33 -24
73 -61 55 -116 105 -122 111 -28 26 -145 123 -186 152 -25 18 -74 55 -110 82
-36 27 -70 49 -76 50 -6 0 -21 11 -34 25 -24 25 -40 32 -40 17z"/>
<path d="M6761 14553 c7 -10 74 -79 149 -154 152 -153 224 -204 415 -298 72
-35 161 -79 199 -98 48 -23 73 -30 80 -23 6 6 6 10 0 10 -5 0 -21 9 -34 19
-61 48 -410 301 -415 301 -6 0 -86 51 -95 60 -9 9 -89 60 -95 60 -8 0 -106 70
-149 107 -44 36 -79 47 -55 16z"/>
<path d="M6455 14011 c-3 -2 32 -42 78 -88 130 -133 301 -238 477 -292 41 -13
107 -34 147 -47 39 -13 82 -24 96 -24 14 0 27 -5 29 -11 2 -6 15 -9 28 -7 24
4 24 5 5 13 -11 5 -22 12 -25 15 -5 7 -46 30 -170 98 -36 19 -72 41 -81 48 -8
8 -19 14 -22 14 -4 0 -26 12 -50 27 -60 38 -507 260 -512 254z"/>
<path d="M6170 13430 c19 -17 51 -41 70 -53 19 -13 61 -40 92 -61 128 -85 359
-167 596 -212 173 -33 214 -29 112 10 -46 18 -135 58 -180 81 -14 7 -90 38
-170 69 -80 32 -154 61 -165 66 -11 5 -90 32 -175 61 -85 28 -159 55 -164 60
-6 5 -19 9 -30 9 -18 0 -16 -5 14 -30z"/>
<path d="M5783 12940 c-25 -10 -27 -18 -14 -53 10 -25 76 -62 166 -92 28 -10
59 -21 70 -25 17 -8 63 -21 215 -65 14 -4 48 -11 75 -15 259 -43 311 -49 535
-70 52 -5 109 -11 125 -13 17 -3 21 -2 10 0 -11 3 -27 11 -35 18 -8 7 -28 15
-45 18 -16 3 -55 13 -85 22 -30 9 -68 20 -85 25 -16 5 -115 38 -220 74 -225
77 -349 112 -610 170 -79 18 -73 18 -102 6z"/>
<path d="M5626 12327 c-22 -16 -11 -74 18 -92 19 -12 114 -41 216 -65 78 -18
162 -30 281 -40 136 -11 689 -9 689 2 0 9 -68 28 -101 28 -14 0 -64 9 -110 21
-46 12 -109 25 -139 30 -30 5 -77 13 -105 19 -182 35 -470 79 -620 95 -27 3
-64 8 -82 10 -17 2 -39 -2 -47 -8z"/>
<path d="M5540 11711 c0 -26 41 -89 79 -124 l41 -37 163 0 c89 1 209 5 267 10
58 5 156 10 218 11 61 0 112 4 112 9 0 13 43 20 56 9 9 -8 49 -3 136 15 68 14
138 26 156 26 17 0 32 4 32 9 0 4 -60 11 -132 14 -132 6 -441 28 -673 48 -208
18 -455 23 -455 10z"/>
<path d="M6288 11543 c7 -3 16 -2 19 1 4 3 -2 6 -13 5 -11 0 -14 -3 -6 -6z"/>
<path d="M6033 11513 c15 -2 39 -2 55 0 15 2 2 4 -28 4 -30 0 -43 -2 -27 -4z"/>
<path d="M5560 11115 c0 -61 19 -108 49 -125 11 -5 39 -10 63 -10 62 1 314 39
468 70 25 5 83 12 130 14 47 3 101 10 120 16 19 6 58 15 85 20 70 12 105 20
145 30 19 5 52 12 73 15 20 3 37 9 37 13 0 5 -263 9 -585 10 l-585 2 0 -55z"/>
<path d="M5945 10990 c-4 -6 11 -10 39 -10 25 0 48 5 51 10 4 6 -11 10 -39 10
-25 0 -48 -4 -51 -10z"/>
<path d="M5806 10961 c5 -6 32 -6 64 -2 l55 9 -64 1 c-40 1 -61 -3 -55 -8z"/>
<path d="M5668 10943 c-27 -2 -48 -8 -48 -13 0 -10 108 -1 130 11 16 9 11 9
-82 2z"/>
<path d="M6800 10830 c0 -5 5 -10 10 -10 6 0 10 5 10 10 0 6 -4 10 -10 10 -5
0 -10 -4 -10 -10z"/>
<path d="M6525 10630 c-4 -6 8 -10 29 -10 19 0 38 5 41 10 4 6 -8 10 -29 10
-19 0 -38 -4 -41 -10z"/>
<path d="M16824 14927 c-179 -121 -251 -176 -389 -293 -167 -142 -220 -193
-211 -202 4 -3 10 -2 14 3 4 6 16 16 27 22 24 15 145 73 151 73 3 0 30 16 60
35 30 19 57 35 60 35 9 0 143 98 203 148 29 25 77 78 106 116 29 39 62 80 74
90 11 11 21 23 21 28 0 19 -30 5 -116 -55z"/>
<path d="M17260 14512 c-14 -9 -26 -20 -28 -24 -2 -5 -10 -8 -17 -8 -7 0 -50
-22 -94 -50 -44 -27 -83 -50 -85 -50 -11 0 -296 -193 -371 -250 -126 -97 -186
-140 -196 -140 -5 0 -9 -4 -9 -10 0 -15 22 -12 66 9 21 10 62 29 89 41 67 30
262 126 302 149 32 18 89 60 115 83 7 7 38 35 68 62 114 102 200 186 200 196
0 14 -11 12 -40 -8z"/>
<path d="M17565 13991 c-5 -9 -129 -71 -141 -71 -12 0 -247 -114 -335 -162
-47 -26 -245 -147 -289 -177 -14 -10 -32 -21 -40 -25 -45 -21 -61 -34 -50 -41
6 -4 16 -2 23 3 14 12 80 34 232 77 60 17 95 30 127 46 10 5 23 9 28 9 26 0
182 86 255 140 107 80 224 183 221 194 -3 14 -23 19 -31 7z"/>
<path d="M17945 13460 c-230 -63 -347 -99 -410 -125 -16 -7 -86 -34 -155 -60
-69 -26 -152 -60 -185 -75 -33 -15 -77 -32 -97 -39 -21 -7 -40 -17 -43 -22 -4
-5 -13 -9 -22 -9 -24 0 -156 -61 -148 -68 2 -3 24 0 47 6 24 6 70 16 103 22
124 23 172 33 225 45 30 7 82 18 115 25 151 31 419 145 505 214 8 7 41 25 73
40 75 37 70 67 -8 46z"/>
<path d="M18138 12925 c-3 -3 -27 -10 -54 -15 -178 -32 -311 -64 -415 -101
-30 -10 -60 -19 -67 -19 -6 0 -23 -5 -39 -12 -58 -24 -221 -80 -288 -100 -38
-11 -74 -24 -80 -29 -5 -5 -24 -9 -42 -9 -17 0 -36 -6 -40 -14 -4 -8 -17 -16
-28 -19 -11 -4 -2 -4 19 -1 75 10 211 25 316 34 204 18 339 40 430 70 30 11
109 33 175 50 66 17 134 36 150 41 88 32 124 66 110 108 -6 19 -14 21 -74 21
-37 0 -70 -2 -73 -5z"/>
<path d="M17454 10015 c-18 -14 -17 -14 14 -15 22 0 32 5 32 15 0 19 -21 19
-46 0z"/>
<path d="M17280 9975 c-10 -12 -10 -21 -1 -42 14 -31 25 -23 28 23 2 37 -7 43
-27 19z"/>
<path d="M17402 9983 c-21 -8 -3 -23 29 -23 19 0 29 5 29 15 0 15 -31 19 -58
8z"/>
<path d="M16247 9442 c-24 -25 -36 -44 -32 -54 4 -9 2 -19 -4 -23 -17 -10 -13
-35 4 -29 8 4 15 19 15 35 0 33 31 59 72 59 30 0 37 17 16 38 -19 19 -31 15
-71 -26z"/>
<path d="M16072 9400 c-6 -11 -12 -24 -12 -29 0 -8 -33 -51 -72 -92 -22 -23
-22 -29 -3 -29 8 0 15 5 15 11 0 7 11 22 24 34 13 12 29 32 35 43 15 27 31 28
38 2 3 -11 9 -20 14 -20 12 0 11 47 -1 55 -5 3 -10 15 -10 26 0 25 -12 24 -28
-1z"/>
<path d="M16170 9315 c0 -8 5 -15 10 -15 6 0 10 7 10 15 0 8 -4 15 -10 15 -5
0 -10 -7 -10 -15z"/>
<path d="M16066 9281 c-4 -5 -2 -12 3 -15 5 -4 12 -2 15 3 4 5 2 12 -3 15 -5
4 -12 2 -15 -3z"/>
<path d="M16125 9250 c-3 -5 -1 -10 4 -10 6 0 11 5 11 10 0 6 -2 10 -4 10 -3
0 -8 -4 -11 -10z"/>
<path d="M16005 9220 c-3 -5 3 -10 15 -10 12 0 18 5 15 10 -3 6 -10 10 -15 10
-5 0 -12 -4 -15 -10z"/>
<path d="M15974 9189 c-3 -6 -1 -16 5 -22 8 -8 11 -5 11 11 0 24 -5 28 -16 11z"/>
<path d="M11290 17310 c0 -5 5 -10 10 -10 6 0 10 5 10 10 0 6 -4 10 -10 10 -5
0 -10 -4 -10 -10z"/>
<path d="M11245 17290 c-3 -5 -1 -10 4 -10 6 0 11 5 11 10 0 6 -2 10 -4 10 -3
0 -8 -4 -11 -10z"/>
<path d="M11658 15243 c-38 -40 -61 -102 -46 -120 40 -48 333 -193 391 -193
10 0 9 114 -2 126 -5 5 -21 32 -36 59 -38 69 -67 98 -130 129 -75 36 -142 36
-177 -1z"/>
<path d="M12270 15260 c-48 -10 -111 -45 -152 -84 -24 -24 -38 -49 -46 -87
-38 -169 -38 -170 36 -150 59 15 185 75 202 96 7 8 21 15 31 15 11 0 19 5 19
10 0 6 16 10 35 10 26 0 33 3 29 15 -8 20 1 19 25 -2 11 -9 18 -20 15 -25 -3
-5 0 -16 7 -24 9 -11 14 -12 20 -3 23 37 -40 164 -106 214 -33 26 -53 28 -115
15z"/>
<path d="M11561 15044 c0 -11 3 -14 6 -6 3 7 2 16 -1 19 -3 4 -6 -2 -5 -13z"/>
<path d="M14840 13336 c0 -8 5 -18 10 -21 6 -3 10 1 10 9 0 8 -4 18 -10 21 -5
3 -10 -1 -10 -9z"/>
<path d="M14707 12383 c-10 -9 -9 -23 2 -23 5 0 11 7 15 15 5 15 -5 20 -17 8z"/>
<path d="M14850 12151 c0 -5 5 -13 10 -16 6 -3 10 -2 10 4 0 5 -4 13 -10 16
-5 3 -10 2 -10 -4z"/>
<path d="M14940 12124 c0 -8 5 -12 10 -9 6 3 10 10 10 16 0 5 -4 9 -10 9 -5 0
-10 -7 -10 -16z"/>
<path d="M9480 13689 c0 -5 5 -7 10 -4 6 3 10 8 10 11 0 2 -4 4 -10 4 -5 0
-10 -5 -10 -11z"/>
<path d="M9140 13301 c0 -11 5 -23 10 -26 6 -4 10 5 10 19 0 14 -4 26 -10 26
-5 0 -10 -9 -10 -19z"/>
<path d="M12261 13941 c-11 -7 -9 -10 8 -16 25 -8 36 -2 26 14 -8 13 -15 14
-34 2z"/>
<path d="M11818 13903 c7 -3 16 -2 19 1 4 3 -2 6 -13 5 -11 0 -14 -3 -6 -6z"/>
<path d="M11421 12774 c0 -11 3 -14 6 -6 3 7 2 16 -1 19 -3 4 -6 -2 -5 -13z"/>
<path d="M11506 12685 c4 -8 8 -15 10 -15 2 0 4 7 4 15 0 8 -4 15 -10 15 -5 0
-7 -7 -4 -15z"/>
<path d="M11560 12632 c0 -6 5 -12 10 -12 6 0 10 -5 10 -11 0 -15 30 -43 37
-35 4 4 -7 21 -25 39 -18 17 -32 26 -32 19z"/>
<path d="M11615 12539 c-4 -6 -4 -13 -1 -16 8 -8 36 5 36 17 0 13 -27 13 -35
-1z"/>
<path d="M11650 12496 c0 -9 7 -16 16 -16 17 0 14 22 -4 28 -7 2 -12 -3 -12
-12z"/>
<path d="M18322 8928 c2 -6 10 -14 16 -16 7 -2 10 2 6 12 -7 18 -28 22 -22 4z"/>
<path d="M17668 8873 c7 -3 16 -2 19 1 4 3 -2 6 -13 5 -11 0 -14 -3 -6 -6z"/>
<path d="M17701 8854 c0 -11 3 -14 6 -6 3 7 2 16 -1 19 -3 4 -6 -2 -5 -13z"/>
<path d="M4874 9213 c-21 -32 -46 -83 -56 -113 -11 -30 -24 -59 -29 -64 -5 -6
-9 -22 -9 -37 0 -15 -4 -31 -10 -34 -11 -7 -14 -105 -2 -105 4 0 18 33 31 73
21 64 38 106 74 187 7 14 20 36 29 50 10 14 24 42 33 63 15 35 14 37 -5 37
-13 0 -32 -19 -56 -57z"/>
<path d="M19104 9225 c25 -30 51 -65 57 -77 7 -13 15 -25 18 -28 17 -13 81
-112 81 -124 0 -23 18 -29 24 -9 11 35 -63 161 -144 245 -66 70 -93 64 -36 -7z"/>
<path d="M13352 7560 c-45 -5 -70 -13 -85 -29 l-22 -22 0 -850 c0 -840 0 -851
20 -862 45 -26 107 -35 177 -25 113 17 103 -68 103 883 0 451 -3 832 -8 847
-14 52 -74 71 -185 58z"/>
<path d="M5116 7524 c-8 -21 -8 -287 1 -607 5 -227 8 -257 22 -257 9 0 25 6
36 14 11 7 47 28 80 46 72 39 151 112 171 159 11 26 14 92 14 307 0 150 -4
284 -10 298 -16 44 -56 56 -188 56 -100 0 -121 -3 -126 -16z"/>
<path d="M10632 4580 l-22 -9 2 -378 3 -378 70 4 c85 4 119 20 134 62 7 21 11
138 11 331 0 354 1 349 -86 367 -67 13 -81 13 -112 1z"/>
<path d="M14272 4363 c-6 -15 -13 -68 -16 -118 -4 -49 -13 -124 -20 -165 -7
-41 -12 -78 -9 -82 2 -5 33 -8 68 -8 35 0 66 3 68 8 6 11 -31 269 -50 351 -11
44 -27 50 -41 14z"/>
<path d="M15418 4520 c-16 -10 -18 -30 -18 -180 0 -198 -5 -190 110 -183 92 5
103 15 118 104 24 137 9 214 -47 243 -37 20 -141 29 -163 16z"/>
<path d="M8306 4351 c-4 -6 -11 -75 -16 -153 -6 -79 -14 -165 -19 -193 -14
-79 -4 -87 87 -70 l54 10 -6 35 c-3 19 -10 64 -15 100 -6 36 -17 97 -26 135
-9 39 -18 82 -22 97 -6 32 -28 54 -37 39z"/>
<path d="M4743 17771 l-72 -78 606 -577 c333 -317 608 -576 612 -574 3 2 38
37 78 78 l71 75 -604 575 c-332 316 -607 576 -612 577 -4 2 -39 -32 -79 -76z"/>
<path d="M4383 17270 c-94 -19 -195 -97 -264 -203 -50 -77 -71 -145 -71 -224
1 -123 73 -224 246 -347 99 -71 161 -90 270 -84 83 5 143 25 343 113 92 40
164 53 214 36 44 -14 196 -136 226 -180 16 -24 23 -48 23 -83 0 -60 -16 -93
-69 -141 -68 -61 -149 -59 -236 8 l-32 24 -66 -87 -66 -87 27 -22 c96 -77 217
-120 306 -108 72 9 154 51 211 109 107 107 155 209 155 326 0 121 -59 208
-232 343 -124 96 -172 119 -263 125 -87 5 -131 -5 -260 -61 -49 -21 -121 -53
-160 -69 -50 -22 -87 -31 -131 -32 -55 -1 -66 3 -118 37 -91 61 -153 126 -161
170 -10 53 9 110 52 158 63 70 144 74 235 12 42 -29 52 -33 62 -21 31 34 116
148 116 155 -1 14 -90 74 -153 103 -70 32 -142 43 -204 30z"/>
<path d="M19477 17120 c-59 -15 -114 -47 -215 -121 -189 -142 -226 -248 -183
-532 28 -183 27 -250 -2 -301 -27 -48 -191 -171 -248 -186 -52 -14 -106 1
-148 42 -92 90 -89 195 7 278 l46 39 -65 84 c-52 70 -67 84 -81 76 -41 -22
-136 -122 -163 -171 -28 -49 -30 -61 -30 -153 0 -97 1 -102 40 -174 54 -102
131 -183 211 -222 55 -27 76 -32 137 -32 101 0 165 28 305 132 131 97 164 133
199 208 37 80 39 153 9 355 -39 258 -29 289 113 392 61 43 93 60 125 63 95 11
186 -76 186 -178 0 -52 -35 -114 -84 -149 -20 -14 -36 -28 -36 -32 0 -10 121
-168 129 -168 4 0 34 22 67 49 109 88 162 198 151 314 -12 130 -138 307 -259
362 -62 28 -154 39 -211 25z"/>
<path d="M3685 16286 c-90 -28 -151 -80 -217 -181 -110 -169 -101 -352 24
-472 47 -45 197 -139 268 -167 65 -26 188 -25 263 2 32 11 115 55 184 97 159
98 197 115 256 115 51 0 104 -23 214 -92 78 -49 107 -93 105 -160 -3 -145
-150 -228 -274 -155 l-47 27 -50 -89 c-28 -48 -51 -93 -51 -99 0 -18 140 -80
200 -89 113 -17 206 12 289 90 105 100 167 244 159 365 -10 133 -83 222 -278
335 -174 100 -264 116 -390 68 -26 -10 -116 -59 -199 -110 -219 -132 -244
-136 -390 -54 -135 77 -166 141 -118 245 48 106 143 136 249 80 l57 -30 50 89
c28 49 51 92 51 97 0 14 -115 71 -175 87 -70 18 -125 18 -180 1z"/>
<path d="M19596 15834 c-395 -221 -723 -407 -728 -412 -6 -6 50 -116 157 -308
92 -165 169 -301 170 -302 4 -5 173 87 179 97 3 4 -44 96 -105 203 -60 108
-109 200 -109 206 0 17 34 39 229 147 149 84 197 106 209 98 9 -5 57 -82 107
-171 49 -88 93 -163 97 -167 9 -9 178 84 178 97 0 6 -40 84 -90 172 -49 89
-90 169 -90 178 0 22 23 37 238 157 113 62 190 100 201 96 9 -3 66 -93 126
-200 60 -107 113 -195 117 -195 8 0 131 66 167 89 11 7 -20 69 -147 298 -89
158 -167 295 -174 304 -11 14 -100 -33 -732 -387z"/>
<path d="M3056 15278 c-116 -276 -214 -513 -213 -515 5 -5 1538 -643 1544
-643 6 0 241 552 268 630 4 11 -19 25 -90 54 -53 21 -98 37 -100 34 -3 -3 -88
-202 -172 -405 -2 -6 -11 -14 -20 -17 -14 -6 -414 154 -440 176 -22 17 -15 40
57 214 39 92 69 172 67 178 -4 13 -180 86 -188 78 -3 -4 -39 -87 -79 -184 -40
-97 -79 -179 -87 -182 -20 -8 -452 173 -463 193 -8 16 1 40 128 343 l40 97
-86 36 c-48 20 -92 39 -98 42 -7 2 -34 -50 -68 -129z"/>
<path d="M20096 14849 c-423 -159 -771 -291 -774 -294 -7 -7 62 -187 73 -191
6 -2 158 52 340 120 228 86 335 121 346 116 16 -9 59 -108 59 -136 0 -8 -134
-113 -297 -235 -164 -122 -302 -225 -307 -230 -5 -5 5 -45 24 -96 18 -48 37
-98 41 -111 8 -22 27 -8 314 223 168 136 313 247 323 248 9 0 40 -15 67 -35
124 -88 214 -84 487 22 57 22 125 56 151 76 98 72 138 179 119 315 -13 94
-160 493 -182 496 -8 1 -361 -128 -784 -288z m714 -79 c43 -107 47 -188 12
-237 -23 -33 -95 -67 -245 -118 -90 -30 -135 -24 -179 22 -32 35 -41 52 -77
151 -25 67 -28 83 -17 97 16 22 412 174 446 172 22 -2 30 -14 60 -87z"/>
<path d="M2705 14377 c-70 -246 -173 -622 -170 -625 5 -5 1609 -451 1612 -448
4 4 51 166 55 190 3 17 -34 29 -326 110 -209 59 -333 98 -339 108 -7 11 4 68
42 203 29 103 49 191 44 195 -11 11 -182 54 -188 48 -3 -3 -28 -85 -55 -183
-50 -178 -61 -205 -86 -205 -17 0 -471 127 -484 135 -16 10 -12 29 44 234 69
246 67 233 36 241 -14 4 -58 16 -97 28 l-73 20 -15 -51z"/>
<path d="M20475 13817 c-413 -183 -760 -336 -771 -342 -21 -10 -21 -10 8 -132
l30 -123 31 0 c39 0 1671 81 1674 83 1 2 -49 220 -52 225 -1 1 -274 -23 -605
-55 -587 -55 -603 -56 -616 -38 -17 23 -17 30 -1 47 8 7 263 109 568 227 305
118 555 215 557 216 8 6 -51 225 -61 224 -7 0 -350 -150 -762 -332z"/>
<path d="M2605 13246 c-140 -44 -220 -163 -246 -366 -25 -200 52 -348 215
-409 78 -29 1089 -165 1169 -157 177 17 287 144 317 367 31 228 -68 393 -265
438 -89 20 -1027 141 -1089 140 -34 0 -79 -6 -101 -13z m653 -277 c498 -66
513 -70 559 -138 18 -26 23 -48 23 -94 0 -109 -53 -178 -145 -192 -25 -3 -225
19 -518 59 -406 55 -483 68 -519 88 -119 66 -105 276 22 327 45 18 117 12 578
-50z"/>
<path d="M20648 12906 c-449 -61 -819 -114 -822 -117 -7 -7 18 -197 27 -205 7
-7 1645 211 1654 220 9 9 -21 209 -32 211 -5 2 -378 -47 -827 -109z"/>
<path d="M20666 12385 c-453 -15 -499 -19 -567 -45 -151 -57 -222 -167 -222
-345 -1 -257 135 -385 409 -385 l104 0 0 109 0 109 -93 4 c-107 4 -154 26
-181 82 -47 98 5 203 111 226 53 11 969 35 1016 26 79 -15 131 -94 117 -178
-15 -84 -78 -127 -190 -128 -36 0 -70 -4 -76 -8 -8 -5 -10 -42 -6 -116 l5
-109 92 7 c163 12 244 44 316 124 62 68 84 134 84 252 0 166 -53 272 -169 336
-107 59 -114 59 -750 39z"/>
<path d="M3605 11935 c-192 -68 -357 -125 -365 -126 -32 -3 -39 2 -64 45 -48
82 -128 131 -239 146 -34 5 -134 5 -222 1 -132 -7 -170 -12 -210 -30 -89 -39
-156 -122 -185 -231 -11 -40 -16 -537 -6 -548 5 -5 1509 27 1604 34 l72 6 0
105 0 106 -217 -7 c-433 -12 -504 -11 -520 9 -19 27 -17 129 3 146 9 7 174 64
368 125 l351 111 3 117 c2 89 0 116 -10 116 -7 -1 -170 -57 -363 -125z m-655
-177 c61 -32 76 -69 84 -198 5 -78 3 -110 -6 -123 -12 -15 -42 -18 -255 -24
-232 -6 -243 -5 -250 13 -4 10 -8 69 -8 129 0 192 36 218 310 223 66 2 89 -2
125 -20z"/>
<path d="M19886 11348 c-12 -89 -66 -603 -66 -629 0 -29 -10 -26 151 -44 l56
-7 23 219 c12 120 27 226 32 236 11 22 31 22 264 -3 220 -23 230 -25 237 -43
3 -8 -3 -90 -14 -183 -27 -245 -33 -220 59 -228 42 -4 89 -9 103 -12 l26 -5
21 198 c22 213 28 229 82 219 14 -3 117 -15 230 -26 133 -14 210 -26 219 -35
12 -12 11 -43 -8 -217 -30 -286 -40 -253 80 -264 68 -6 102 -6 105 1 6 19 74
679 70 682 -2 3 -357 42 -788 88 -430 46 -804 86 -830 90 l-47 6 -5 -43z"/>
<path d="M2845 10805 c-99 -18 -201 -41 -227 -50 -62 -22 -133 -86 -165 -148
-43 -86 -42 -171 6 -436 23 -123 43 -226 45 -228 5 -5 1637 284 1644 292 3 2
-3 52 -13 110 -16 97 -19 104 -39 100 -70 -16 -590 -105 -615 -105 -16 0 -32
4 -36 9 -3 6 -14 59 -25 120 -29 160 -52 215 -119 281 -100 100 -169 108 -456
55z m292 -221 c45 -34 62 -66 78 -149 21 -111 20 -133 -7 -145 -25 -10 -475
-90 -507 -90 -30 0 -38 19 -57 121 -19 110 -16 135 26 183 39 43 62 52 211 81
143 28 218 27 256 -1z"/>
<path d="M19939 10466 c-168 -45 -274 -211 -274 -431 0 -108 20 -159 89 -233
57 -61 127 -94 283 -133 186 -47 292 -37 396 37 25 18 95 88 157 158 129 143
174 177 242 184 74 7 221 -33 263 -72 43 -41 58 -93 44 -158 -24 -111 -120
-162 -238 -128 -19 5 -36 8 -38 6 -9 -9 -51 -202 -45 -207 16 -15 107 -29 185
-29 73 0 91 4 145 30 101 51 161 135 198 280 21 83 15 197 -14 262 -27 62
-100 134 -167 164 -98 45 -240 76 -332 72 -144 -7 -191 -40 -438 -305 -73 -80
-128 -107 -198 -101 -74 7 -212 46 -250 72 -93 62 -86 228 13 294 32 22 43 24
117 19 l83 -5 9 37 c19 70 39 166 37 169 -2 1 -34 9 -72 17 -83 18 -133 18
-195 1z"/>
</g>
</svg>
